<svg width="25" height="24" viewBox="0 0 25 24" fill="none" xmlns="http://www.w3.org/2000/svg">
<g id="typcn:social-linkedin">
<path id="Vector" d="M7.35714 21H3.5V8H7.35714V21ZM21.5 21H17.6429V14.0554C17.6429 12.2458 17.0051 11.3449 15.7413 11.3449C14.7397 11.3449 14.1046 11.8493 13.7857 12.8594V21H9.92857C9.92857 21 9.98 9.3 9.92857 8H12.9731L13.2084 10.6H13.2881C14.0789 9.3 15.3427 8.4186 17.0759 8.4186C18.3937 8.4186 19.4596 8.7891 20.2734 9.7199C21.0924 10.652 21.5 11.9026 21.5 13.6589V21Z" fill="white"/>
<path id="Vector_2" d="M5.5 7C6.60457 7 7.5 6.10457 7.5 5C7.5 3.89543 6.60457 3 5.5 3C4.39543 3 3.5 3.89543 3.5 5C3.5 6.10457 4.39543 7 5.5 7Z" fill="white"/>
</g>
</svg>
