<svg width="171" height="60" viewBox="0 0 171 60" fill="none" xmlns="http://www.w3.org/2000/svg">
<path d="M13.1533 4.896C14.5613 4.896 15.7133 5.10933 16.6093 5.536C17.5266 5.94133 18.3373 6.42133 19.0413 6.976C19.4679 7.296 19.7879 7.33867 20.0013 7.104C20.2359 6.848 20.3959 6.26133 20.4813 5.344H21.2173C21.1746 6.13333 21.1426 7.09333 21.1213 8.224C21.0999 9.35467 21.0893 10.848 21.0893 12.704H20.3533C20.2039 11.7867 20.0653 11.0613 19.9373 10.528C19.8093 9.97333 19.6493 9.504 19.4573 9.12C19.2866 8.736 19.0519 8.352 18.7533 7.968C18.0919 7.09333 17.2599 6.464 16.2573 6.08C15.2546 5.67466 14.1986 5.472 13.0893 5.472C12.0439 5.472 11.0946 5.73867 10.2413 6.272C9.40925 6.784 8.68392 7.53067 8.06525 8.512C7.46792 9.49333 6.99858 10.6773 6.65725 12.064C6.33725 13.4507 6.17725 15.008 6.17725 16.736C6.17725 18.528 6.35858 20.1173 6.72125 21.504C7.08392 22.8693 7.58525 24.0213 8.22525 24.96C8.88658 25.8987 9.65458 26.6133 10.5293 27.104C11.4253 27.5733 12.3853 27.808 13.4093 27.808C14.3693 27.808 15.3719 27.616 16.4173 27.232C17.4626 26.848 18.2839 26.2293 18.8813 25.376C19.3506 24.7573 19.6706 24.0853 19.8413 23.36C20.0333 22.6347 20.2039 21.6213 20.3533 20.32H21.0893C21.0893 22.2613 21.0999 23.8293 21.1213 25.024C21.1426 26.1973 21.1746 27.1893 21.2173 28H20.4813C20.3959 27.0827 20.2466 26.5067 20.0333 26.272C19.8413 26.0373 19.5106 26.0693 19.0413 26.368C18.2519 26.9227 17.4093 27.4133 16.5133 27.84C15.6386 28.2453 14.5079 28.448 13.1213 28.448C11.0946 28.448 9.31325 27.9893 7.77725 27.072C6.26258 26.1547 5.07858 24.832 4.22525 23.104C3.39325 21.376 2.97725 19.296 2.97725 16.864C2.97725 14.4747 3.41458 12.384 4.28925 10.592C5.16392 8.8 6.35858 7.40267 7.87325 6.4C9.40925 5.39733 11.1693 4.896 13.1533 4.896ZM90.805 5.344V5.984C90.1437 6.06933 89.5037 6.28267 88.885 6.624C88.2663 6.96533 87.6477 7.53067 87.029 8.32L80.853 16.224L81.557 14.656L89.237 25.408C89.5997 25.9413 89.9943 26.3573 90.421 26.656C90.8477 26.9547 91.3917 27.1893 92.053 27.36V28C91.541 27.9573 90.901 27.936 90.133 27.936C89.3863 27.9147 88.7463 27.904 88.213 27.904C87.8503 27.904 87.4023 27.9147 86.869 27.936C86.357 27.936 85.7063 27.9573 84.917 28V27.36C85.6423 27.3173 86.101 27.1893 86.293 26.976C86.485 26.7627 86.4103 26.4107 86.069 25.92L81.397 18.88C80.9703 18.2187 80.5863 17.728 80.245 17.408C79.925 17.0667 79.5837 16.8427 79.221 16.736C78.8797 16.6293 78.4423 16.5653 77.909 16.544V15.904C78.805 15.8827 79.5517 15.712 80.149 15.392C80.7677 15.0507 81.2797 14.624 81.685 14.112L84.757 10.208C85.461 9.312 85.941 8.55467 86.197 7.936C86.453 7.31733 86.4423 6.848 86.165 6.528C85.8877 6.18667 85.301 6.00533 84.405 5.984V5.344C84.8103 5.36533 85.2263 5.38667 85.653 5.408C86.0797 5.408 86.4957 5.41867 86.901 5.44C87.3277 5.44 87.7223 5.44 88.085 5.44C88.6397 5.44 89.1517 5.42933 89.621 5.408C90.0903 5.38667 90.485 5.36533 90.805 5.344ZM80.629 5.344V5.984C79.9037 6.00533 79.349 6.09067 78.965 6.24C78.6023 6.368 78.357 6.624 78.229 7.008C78.101 7.37067 78.037 7.94666 78.037 8.736V24.608C78.037 25.376 78.101 25.952 78.229 26.336C78.357 26.72 78.6023 26.976 78.965 27.104C79.349 27.232 79.9037 27.3173 80.629 27.36V28C80.1383 27.9573 79.5197 27.936 78.773 27.936C78.0477 27.9147 77.3117 27.904 76.565 27.904C75.733 27.904 74.9543 27.9147 74.229 27.936C73.5037 27.936 72.917 27.9573 72.469 28V27.36C73.1943 27.3173 73.7383 27.232 74.101 27.104C74.485 26.976 74.741 26.72 74.869 26.336C74.997 25.952 75.061 25.376 75.061 24.608V8.736C75.061 7.94666 74.997 7.37067 74.869 7.008C74.741 6.624 74.485 6.368 74.101 6.24C73.7383 6.09067 73.1943 6.00533 72.469 5.984V5.344C72.917 5.36533 73.5037 5.38667 74.229 5.408C74.9543 5.42933 75.733 5.44 76.565 5.44C77.3117 5.44 78.0477 5.42933 78.773 5.408C79.5197 5.38667 80.1383 5.36533 80.629 5.344ZM101.598 5.344V5.984C100.872 6.00533 100.318 6.09067 99.9338 6.24C99.5711 6.368 99.3258 6.624 99.1978 7.008C99.0698 7.37067 99.0058 7.94666 99.0058 8.736V24.608C99.0058 25.376 99.0698 25.952 99.1978 26.336C99.3258 26.72 99.5711 26.976 99.9338 27.104C100.318 27.232 100.872 27.3173 101.598 27.36V28C101.107 27.9573 100.488 27.936 99.7418 27.936C99.0164 27.9147 98.2804 27.904 97.5338 27.904C96.7018 27.904 95.9231 27.9147 95.1978 27.936C94.4724 27.936 93.8858 27.9573 93.4378 28V27.36C94.1631 27.3173 94.7071 27.232 95.0698 27.104C95.4538 26.976 95.7098 26.72 95.8378 26.336C95.9658 25.952 96.0298 25.376 96.0298 24.608V8.736C96.0298 7.94666 95.9658 7.37067 95.8378 7.008C95.7098 6.624 95.4538 6.368 95.0698 6.24C94.7071 6.09067 94.1631 6.00533 93.4378 5.984V5.344C93.8858 5.36533 94.4724 5.38667 95.1978 5.408C95.9231 5.42933 96.7018 5.44 97.5338 5.44C98.2804 5.44 99.0164 5.42933 99.7418 5.408C100.488 5.38667 101.107 5.36533 101.598 5.344ZM120.25 5.344C120.164 6.09067 120.1 6.816 120.058 7.52C120.036 8.224 120.026 8.75733 120.026 9.12C120.026 9.504 120.036 9.87733 120.058 10.24C120.079 10.5813 120.1 10.8693 120.122 11.104H119.385C119.258 9.84533 119.076 8.85333 118.842 8.128C118.607 7.38133 118.202 6.85867 117.626 6.56C117.071 6.24 116.228 6.08 115.098 6.08H112.442C111.716 6.08 111.162 6.144 110.778 6.272C110.415 6.37867 110.17 6.624 110.042 7.008C109.914 7.37067 109.85 7.94666 109.85 8.736V24.608C109.85 25.376 109.914 25.952 110.042 26.336C110.17 26.72 110.415 26.976 110.778 27.104C111.162 27.2107 111.716 27.264 112.442 27.264H114.778C116.122 27.264 117.135 27.0827 117.818 26.72C118.522 26.3573 119.023 25.7707 119.322 24.96C119.642 24.128 119.876 23.008 120.026 21.6H120.762C120.698 22.176 120.666 22.944 120.666 23.904C120.666 24.3093 120.676 24.896 120.698 25.664C120.74 26.4107 120.804 27.1893 120.89 28C119.802 27.9573 118.575 27.936 117.21 27.936C115.844 27.9147 114.628 27.904 113.562 27.904C113.092 27.904 112.484 27.904 111.738 27.904C111.012 27.904 110.223 27.9147 109.37 27.936C108.516 27.936 107.652 27.9467 106.778 27.968C105.903 27.968 105.071 27.9787 104.282 28V27.36C105.007 27.3173 105.551 27.232 105.914 27.104C106.298 26.976 106.554 26.72 106.682 26.336C106.81 25.952 106.874 25.376 106.874 24.608V8.736C106.874 7.94666 106.81 7.37067 106.682 7.008C106.554 6.624 106.298 6.368 105.914 6.24C105.551 6.09067 105.007 6.00533 104.282 5.984V5.344C105.071 5.36533 105.903 5.38667 106.778 5.408C107.652 5.408 108.516 5.41867 109.37 5.44C110.223 5.44 111.012 5.44 111.738 5.44C112.484 5.44 113.092 5.44 113.562 5.44C114.543 5.44 115.652 5.44 116.89 5.44C118.148 5.41867 119.268 5.38667 120.25 5.344ZM114.746 16.288C114.746 16.288 114.746 16.3947 114.746 16.608C114.746 16.8213 114.746 16.928 114.746 16.928H108.89C108.89 16.928 108.89 16.8213 108.89 16.608C108.89 16.3947 108.89 16.288 108.89 16.288H114.746ZM115.674 12.064C115.588 13.28 115.546 14.208 115.546 14.848C115.567 15.488 115.578 16.0747 115.578 16.608C115.578 17.1413 115.588 17.728 115.61 18.368C115.631 19.008 115.684 19.936 115.77 21.152H115.034C114.948 20.4693 114.842 19.808 114.714 19.168C114.607 18.5067 114.351 17.9733 113.946 17.568C113.562 17.1413 112.9 16.928 111.962 16.928V16.288C112.666 16.288 113.199 16.1493 113.562 15.872C113.946 15.5733 114.223 15.2 114.394 14.752C114.564 14.304 114.682 13.8453 114.746 13.376C114.81 12.8853 114.874 12.448 114.938 12.064H115.674ZM130.63 4.992C131.696 4.992 132.507 5.12 133.062 5.376C133.616 5.61067 134.107 5.87733 134.534 6.176C134.79 6.32533 134.992 6.44267 135.142 6.528C135.312 6.592 135.472 6.624 135.622 6.624C135.835 6.624 135.984 6.50667 136.07 6.272C136.176 6.03733 136.262 5.68533 136.326 5.216H137.062C137.04 5.57867 137.008 6.016 136.966 6.528C136.944 7.01867 136.923 7.68 136.902 8.512C136.902 9.32267 136.902 10.4 136.902 11.744H136.166C136.102 10.72 135.878 9.73867 135.494 8.8C135.11 7.86133 134.544 7.09333 133.798 6.496C133.072 5.89867 132.112 5.6 130.918 5.6C129.787 5.6 128.848 5.94133 128.102 6.624C127.376 7.30667 127.014 8.20267 127.014 9.312C127.014 10.272 127.259 11.0827 127.75 11.744C128.24 12.384 128.891 12.9707 129.702 13.504C130.534 14.016 131.43 14.5707 132.39 15.168C133.499 15.8507 134.48 16.5333 135.334 17.216C136.208 17.8773 136.891 18.6133 137.382 19.424C137.894 20.2347 138.15 21.216 138.15 22.368C138.15 23.7333 137.84 24.864 137.222 25.76C136.603 26.656 135.782 27.328 134.758 27.776C133.734 28.224 132.603 28.448 131.366 28.448C130.235 28.448 129.339 28.32 128.678 28.064C128.016 27.808 127.451 27.5413 126.982 27.264C126.512 26.9653 126.15 26.816 125.894 26.816C125.68 26.816 125.52 26.9333 125.414 27.168C125.328 27.4027 125.254 27.7547 125.19 28.224H124.454C124.496 27.776 124.518 27.2533 124.518 26.656C124.539 26.0373 124.549 25.2373 124.549 24.256C124.571 23.2747 124.582 22.0373 124.582 20.544H125.318C125.403 21.824 125.638 23.0187 126.022 24.128C126.427 25.2373 127.035 26.1333 127.846 26.816C128.678 27.4773 129.776 27.808 131.142 27.808C131.846 27.808 132.507 27.6693 133.126 27.392C133.766 27.0933 134.288 26.6347 134.694 26.016C135.099 25.376 135.302 24.5547 135.302 23.552C135.302 22.6773 135.088 21.92 134.662 21.28C134.256 20.6187 133.68 20.0107 132.934 19.456C132.187 18.88 131.312 18.2933 130.31 17.696C129.307 17.0773 128.368 16.448 127.494 15.808C126.619 15.168 125.915 14.432 125.382 13.6C124.87 12.7467 124.614 11.7227 124.614 10.528C124.614 9.26933 124.891 8.23467 125.446 7.424C126.022 6.592 126.768 5.984 127.686 5.6C128.603 5.19467 129.584 4.992 130.63 4.992ZM30.1646 35.344V35.984C29.7593 36.0693 29.3113 36.3147 28.8206 36.72C28.33 37.104 27.9353 37.7867 27.6366 38.768L21.5886 58.16C21.546 58.16 21.5033 58.16 21.4606 58.16C21.418 58.16 21.3753 58.16 21.3326 58.16C21.29 58.16 21.2473 58.16 21.2046 58.16C21.162 58.16 21.1193 58.16 21.0766 58.16L14.2926 38.032C14.0153 37.2 13.706 36.656 13.3646 36.4C13.0233 36.144 12.7033 36.0053 12.4046 35.984V35.344C12.7886 35.3653 13.2686 35.3867 13.8446 35.408C14.4206 35.4293 14.9753 35.44 15.5086 35.44C16.3406 35.44 17.1193 35.4293 17.8446 35.408C18.57 35.3867 19.1566 35.3653 19.6046 35.344V35.984C18.9646 36.0053 18.4526 36.0693 18.0686 36.176C17.706 36.2827 17.4926 36.5173 17.4286 36.88C17.386 37.2427 17.4926 37.84 17.7486 38.672L22.5166 53.424L22.0686 53.808L26.2926 40.528C26.6766 39.3547 26.8473 38.448 26.8046 37.808C26.7833 37.1467 26.5486 36.688 26.1006 36.432C25.6526 36.1547 24.9806 36.0053 24.0846 35.984V35.344C24.7033 35.3653 25.3326 35.3867 25.9726 35.408C26.6126 35.4293 27.21 35.44 27.7646 35.44C28.3193 35.44 28.778 35.4293 29.1406 35.408C29.5033 35.3867 29.8446 35.3653 30.1646 35.344ZM7.79663 35.344V35.984C7.24196 36.0267 6.83663 36.1333 6.58063 36.304C6.34596 36.4747 6.22863 36.752 6.22863 37.136C6.24996 37.4987 6.36729 38.0107 6.58063 38.672L11.5406 53.808L10.7406 54.608L15.2206 40.304L15.7006 41.072L10.4206 58.16C10.378 58.16 10.3353 58.16 10.2926 58.16C10.25 58.16 10.2073 58.16 10.1646 58.16C10.122 58.16 10.0793 58.16 10.0366 58.16C9.99396 58.16 9.95129 58.16 9.90863 58.16L3.12463 38.032C2.84729 37.2 2.49529 36.656 2.06863 36.4C1.64196 36.144 1.25796 36.0053 0.916625 35.984V35.344C1.34329 35.3653 1.86596 35.3867 2.48463 35.408C3.12463 35.4293 3.74329 35.44 4.34063 35.44C5.04463 35.44 5.69529 35.4293 6.29263 35.408C6.91129 35.3867 7.41263 35.3653 7.79663 35.344ZM38.6329 35.184L46.4409 55.312C46.7609 56.1227 47.1235 56.6667 47.5289 56.944C47.9342 57.2 48.3075 57.3387 48.6489 57.36V58C48.2222 57.9573 47.6995 57.936 47.0809 57.936C46.4622 57.9147 45.8435 57.904 45.2249 57.904C44.3929 57.904 43.6142 57.9147 42.8889 57.936C42.1635 57.936 41.5769 57.9573 41.1289 58V57.36C42.2169 57.3173 42.9102 57.136 43.2089 56.816C43.5075 56.4747 43.4435 55.76 43.0169 54.672L37.0649 38.768L37.5769 38.352L32.0089 52.816C31.6675 53.6693 31.4649 54.3947 31.4009 54.992C31.3369 55.568 31.3902 56.0267 31.5609 56.368C31.7529 56.7093 32.0622 56.9547 32.4889 57.104C32.9369 57.2533 33.4915 57.3387 34.1529 57.36V58C33.5555 57.9573 32.9262 57.936 32.2649 57.936C31.6249 57.9147 31.0275 57.904 30.4729 57.904C29.9395 57.904 29.4809 57.9147 29.0969 57.936C28.7342 57.936 28.3929 57.9573 28.0729 58V57.36C28.4995 57.2533 28.9369 57.008 29.3849 56.624C29.8329 56.2187 30.2382 55.536 30.6009 54.576L38.1209 35.184C38.2062 35.184 38.2915 35.184 38.3769 35.184C38.4622 35.184 38.5475 35.184 38.6329 35.184ZM42.5369 48.784V49.424H33.0009L33.3209 48.784H42.5369ZM65.1401 35.344C65.0548 36.1547 64.9908 36.944 64.9481 37.712C64.9268 38.4587 64.9161 39.0347 64.9161 39.44C64.9161 39.952 64.9268 40.432 64.9481 40.88C64.9695 41.328 64.9908 41.7227 65.0121 42.064H64.2761C64.1268 40.5707 63.9241 39.3973 63.6681 38.544C63.4121 37.6693 62.9641 37.04 62.3241 36.656C61.6841 36.272 60.6921 36.08 59.3481 36.08H57.3321C56.6068 36.08 56.0521 36.144 55.6681 36.272C55.3055 36.3787 55.0601 36.624 54.9321 37.008C54.8041 37.3707 54.7401 37.9467 54.7401 38.736V54.608C54.7401 55.376 54.8148 55.952 54.9641 56.336C55.1348 56.72 55.4548 56.976 55.9241 57.104C56.3935 57.232 57.0761 57.3173 57.9721 57.36V58C57.4175 57.9573 56.7135 57.936 55.8601 57.936C55.0068 57.9147 54.1428 57.904 53.2681 57.904C52.4361 57.904 51.6575 57.9147 50.9321 57.936C50.2068 57.936 49.6201 57.9573 49.1721 58V57.36C49.8975 57.3173 50.4415 57.232 50.8041 57.104C51.1881 56.976 51.4441 56.72 51.5721 56.336C51.7001 55.952 51.7641 55.376 51.7641 54.608V38.736C51.7641 37.9467 51.7001 37.3707 51.5721 37.008C51.4441 36.624 51.1881 36.368 50.8041 36.24C50.4415 36.0907 49.8975 36.0053 49.1721 35.984V35.344C49.9615 35.3653 50.7935 35.3867 51.6681 35.408C52.5428 35.408 53.4068 35.4187 54.2601 35.44C55.1135 35.44 55.9028 35.44 56.6281 35.44C57.3748 35.44 57.9828 35.44 58.4521 35.44C59.4335 35.44 60.5428 35.44 61.7801 35.44C63.0388 35.4187 64.1588 35.3867 65.1401 35.344ZM60.1801 46.608C60.1801 46.608 60.1801 46.7147 60.1801 46.928C60.1801 47.1413 60.1801 47.248 60.1801 47.248H53.7801C53.7801 47.248 53.7801 47.1413 53.7801 46.928C53.7801 46.7147 53.7801 46.608 53.7801 46.608H60.1801ZM60.7881 42.384C60.7028 43.6 60.6601 44.528 60.6601 45.168C60.6815 45.808 60.6921 46.3947 60.6921 46.928C60.6921 47.4613 60.7028 48.048 60.7241 48.688C60.7455 49.328 60.7988 50.256 60.8841 51.472H60.1481C60.0628 50.7893 59.9561 50.128 59.8281 49.488C59.7215 48.8267 59.4655 48.2933 59.0601 47.888C58.6761 47.4613 58.0148 47.248 57.0761 47.248V46.608C57.7801 46.608 58.3135 46.4693 58.6761 46.192C59.0601 45.8933 59.3375 45.52 59.5081 45.072C59.6788 44.624 59.7961 44.1653 59.8601 43.696C59.9241 43.2053 59.9881 42.768 60.0521 42.384H60.7881ZM83.3589 35.344C83.2735 36.1547 83.2095 36.944 83.1669 37.712C83.1455 38.4587 83.1349 39.0347 83.1349 39.44C83.1349 39.952 83.1455 40.432 83.1669 40.88C83.1882 41.328 83.2095 41.7227 83.2309 42.064H82.4949C82.3455 40.5707 82.1429 39.3973 81.8869 38.544C81.6309 37.6693 81.1829 37.04 80.5429 36.656C79.9029 36.272 78.9109 36.08 77.5669 36.08H75.5509C74.8255 36.08 74.2709 36.144 73.8869 36.272C73.5242 36.3787 73.2789 36.624 73.1509 37.008C73.0229 37.3707 72.9589 37.9467 72.9589 38.736V54.608C72.9589 55.376 73.0335 55.952 73.1829 56.336C73.3535 56.72 73.6735 56.976 74.1429 57.104C74.6122 57.232 75.2949 57.3173 76.1909 57.36V58C75.6362 57.9573 74.9322 57.936 74.0789 57.936C73.2255 57.9147 72.3615 57.904 71.4869 57.904C70.6549 57.904 69.8762 57.9147 69.1509 57.936C68.4255 57.936 67.8389 57.9573 67.3909 58V57.36C68.1162 57.3173 68.6602 57.232 69.0229 57.104C69.4069 56.976 69.6629 56.72 69.7909 56.336C69.9189 55.952 69.9829 55.376 69.9829 54.608V38.736C69.9829 37.9467 69.9189 37.3707 69.7909 37.008C69.6629 36.624 69.4069 36.368 69.0229 36.24C68.6602 36.0907 68.1162 36.0053 67.3909 35.984V35.344C68.1802 35.3653 69.0122 35.3867 69.8869 35.408C70.7615 35.408 71.6255 35.4187 72.4789 35.44C73.3322 35.44 74.1215 35.44 74.8469 35.44C75.5935 35.44 76.2015 35.44 76.6709 35.44C77.6522 35.44 78.7615 35.44 79.9989 35.44C81.2575 35.4187 82.3775 35.3867 83.3589 35.344ZM78.3989 46.608C78.3989 46.608 78.3989 46.7147 78.3989 46.928C78.3989 47.1413 78.3989 47.248 78.3989 47.248H71.9989C71.9989 47.248 71.9989 47.1413 71.9989 46.928C71.9989 46.7147 71.9989 46.608 71.9989 46.608H78.3989ZM79.0069 42.384C78.9215 43.6 78.8789 44.528 78.8789 45.168C78.9002 45.808 78.9109 46.3947 78.9109 46.928C78.9109 47.4613 78.9215 48.048 78.9429 48.688C78.9642 49.328 79.0175 50.256 79.1029 51.472H78.3669C78.2815 50.7893 78.1749 50.128 78.0469 49.488C77.9402 48.8267 77.6842 48.2933 77.2789 47.888C76.8949 47.4613 76.2335 47.248 75.2949 47.248V46.608C75.9989 46.608 76.5322 46.4693 76.8949 46.192C77.2789 45.8933 77.5562 45.52 77.7269 45.072C77.8975 44.624 78.0149 44.1653 78.0789 43.696C78.1429 43.2053 78.2069 42.768 78.2709 42.384H79.0069ZM93.7696 35.344V35.984C93.0443 36.0053 92.4896 36.0907 92.1056 36.24C91.743 36.368 91.4976 36.624 91.3696 37.008C91.2416 37.3707 91.1776 37.9467 91.1776 38.736V54.608C91.1776 55.376 91.2416 55.952 91.3696 56.336C91.4976 56.72 91.743 56.976 92.1056 57.104C92.4896 57.2107 93.0443 57.264 93.7696 57.264H96.1056C97.1083 57.264 97.919 57.1573 98.5376 56.944C99.1776 56.7307 99.679 56.4 100.042 55.952C100.426 55.4827 100.714 54.864 100.906 54.096C101.098 53.328 101.247 52.3893 101.354 51.28H102.09C102.026 51.9413 101.994 52.816 101.994 53.904C101.994 54.3093 102.004 54.896 102.026 55.664C102.068 56.4107 102.132 57.1893 102.218 58C101.13 57.9573 99.903 57.936 98.5376 57.936C97.1723 57.9147 95.9563 57.904 94.8896 57.904C94.4203 57.904 93.8123 57.904 93.0656 57.904C92.3403 57.904 91.551 57.9147 90.6976 57.936C89.8443 57.936 88.9803 57.9467 88.1056 57.968C87.231 57.968 86.399 57.9787 85.6096 58V57.36C86.335 57.3173 86.879 57.232 87.2416 57.104C87.6256 56.976 87.8816 56.72 88.0096 56.336C88.1376 55.952 88.2016 55.376 88.2016 54.608V38.736C88.2016 37.9467 88.1376 37.3707 88.0096 37.008C87.8816 36.624 87.6256 36.368 87.2416 36.24C86.879 36.0907 86.335 36.0053 85.6096 35.984V35.344C86.0576 35.3653 86.6443 35.3867 87.3696 35.408C88.095 35.4293 88.8736 35.44 89.7056 35.44C90.4523 35.44 91.1883 35.4293 91.9136 35.408C92.6603 35.3867 93.279 35.3653 93.7696 35.344ZM120.39 35.344C120.305 36.0907 120.241 36.816 120.198 37.52C120.177 38.224 120.166 38.7573 120.166 39.12C120.166 39.504 120.177 39.8773 120.198 40.24C120.219 40.5813 120.241 40.8693 120.262 41.104H119.526C119.398 39.8453 119.217 38.8533 118.982 38.128C118.747 37.3813 118.342 36.8587 117.766 36.56C117.211 36.24 116.369 36.08 115.238 36.08H112.582C111.857 36.08 111.302 36.144 110.918 36.272C110.555 36.3787 110.31 36.624 110.182 37.008C110.054 37.3707 109.99 37.9467 109.99 38.736V54.608C109.99 55.376 110.054 55.952 110.182 56.336C110.31 56.72 110.555 56.976 110.918 57.104C111.302 57.2107 111.857 57.264 112.582 57.264H114.918C116.262 57.264 117.275 57.0827 117.958 56.72C118.662 56.3573 119.163 55.7707 119.462 54.96C119.782 54.128 120.017 53.008 120.166 51.6H120.902C120.838 52.176 120.806 52.944 120.806 53.904C120.806 54.3093 120.817 54.896 120.838 55.664C120.881 56.4107 120.945 57.1893 121.03 58C119.942 57.9573 118.715 57.936 117.35 57.936C115.985 57.9147 114.769 57.904 113.702 57.904C113.233 57.904 112.625 57.904 111.878 57.904C111.153 57.904 110.363 57.9147 109.51 57.936C108.657 57.936 107.793 57.9467 106.918 57.968C106.043 57.968 105.211 57.9787 104.422 58V57.36C105.147 57.3173 105.691 57.232 106.054 57.104C106.438 56.976 106.694 56.72 106.822 56.336C106.95 55.952 107.014 55.376 107.014 54.608V38.736C107.014 37.9467 106.95 37.3707 106.822 37.008C106.694 36.624 106.438 36.368 106.054 36.24C105.691 36.0907 105.147 36.0053 104.422 35.984V35.344C105.211 35.3653 106.043 35.3867 106.918 35.408C107.793 35.408 108.657 35.4187 109.51 35.44C110.363 35.44 111.153 35.44 111.878 35.44C112.625 35.44 113.233 35.44 113.702 35.44C114.683 35.44 115.793 35.44 117.03 35.44C118.289 35.4187 119.409 35.3867 120.39 35.344ZM114.886 46.288C114.886 46.288 114.886 46.3947 114.886 46.608C114.886 46.8213 114.886 46.928 114.886 46.928H109.03C109.03 46.928 109.03 46.8213 109.03 46.608C109.03 46.3947 109.03 46.288 109.03 46.288H114.886ZM115.814 42.064C115.729 43.28 115.686 44.208 115.686 44.848C115.707 45.488 115.718 46.0747 115.718 46.608C115.718 47.1413 115.729 47.728 115.75 48.368C115.771 49.008 115.825 49.936 115.91 51.152H115.174C115.089 50.4693 114.982 49.808 114.854 49.168C114.747 48.5067 114.491 47.9733 114.086 47.568C113.702 47.1413 113.041 46.928 112.102 46.928V46.288C112.806 46.288 113.339 46.1493 113.702 45.872C114.086 45.5733 114.363 45.2 114.534 44.752C114.705 44.304 114.822 43.8453 114.886 43.376C114.95 42.8853 115.014 42.448 115.078 42.064H115.814ZM130.77 34.992C131.837 34.992 132.647 35.12 133.202 35.376C133.757 35.6107 134.247 35.8773 134.674 36.176C134.93 36.3253 135.133 36.4427 135.282 36.528C135.453 36.592 135.613 36.624 135.762 36.624C135.975 36.624 136.125 36.5067 136.21 36.272C136.317 36.0373 136.402 35.6853 136.466 35.216H137.202C137.181 35.5787 137.149 36.016 137.106 36.528C137.085 37.0187 137.063 37.68 137.042 38.512C137.042 39.3227 137.042 40.4 137.042 41.744H136.306C136.242 40.72 136.018 39.7387 135.634 38.8C135.25 37.8613 134.685 37.0933 133.938 36.496C133.213 35.8987 132.253 35.6 131.058 35.6C129.927 35.6 128.989 35.9413 128.242 36.624C127.517 37.3067 127.154 38.2027 127.154 39.312C127.154 40.272 127.399 41.0827 127.89 41.744C128.381 42.384 129.031 42.9707 129.842 43.504C130.674 44.016 131.57 44.5707 132.53 45.168C133.639 45.8507 134.621 46.5333 135.474 47.216C136.349 47.8773 137.031 48.6133 137.522 49.424C138.034 50.2347 138.29 51.216 138.29 52.368C138.29 53.7333 137.981 54.864 137.362 55.76C136.743 56.656 135.922 57.328 134.898 57.776C133.874 58.224 132.743 58.448 131.506 58.448C130.375 58.448 129.479 58.32 128.818 58.064C128.157 57.808 127.591 57.5413 127.122 57.264C126.653 56.9653 126.29 56.816 126.034 56.816C125.821 56.816 125.661 56.9333 125.554 57.168C125.469 57.4027 125.394 57.7547 125.33 58.224H124.594C124.637 57.776 124.658 57.2533 124.658 56.656C124.679 56.0373 124.69 55.2373 124.69 54.256C124.711 53.2747 124.722 52.0373 124.722 50.544H125.458C125.543 51.824 125.778 53.0187 126.162 54.128C126.567 55.2373 127.175 56.1333 127.986 56.816C128.818 57.4773 129.917 57.808 131.282 57.808C131.986 57.808 132.647 57.6693 133.266 57.392C133.906 57.0933 134.429 56.6347 134.834 56.016C135.239 55.376 135.442 54.5547 135.442 53.552C135.442 52.6773 135.229 51.92 134.802 51.28C134.397 50.6187 133.821 50.0107 133.074 49.456C132.327 48.88 131.453 48.2933 130.45 47.696C129.447 47.0773 128.509 46.448 127.634 45.808C126.759 45.168 126.055 44.432 125.522 43.6C125.01 42.7467 124.754 41.7227 124.754 40.528C124.754 39.2693 125.031 38.2347 125.586 37.424C126.162 36.592 126.909 35.984 127.826 35.6C128.743 35.1947 129.725 34.992 130.77 34.992Z" fill="#BC7553"/>
<path d="M28.1604 7.83787C27.3029 8.80973 26.6004 10.0407 26.7177 11.3314C26.7682 11.8868 26.9691 12.4266 26.9588 12.9843C26.9457 13.6896 26.5994 14.3386 26.3712 15.0061C25.7247 16.8966 26.024 18.9749 26.5006 20.9153C26.8844 22.478 27.5082 24.1735 28.9461 24.8959C29.7121 25.2808 30.6022 25.3258 31.412 25.6074C32.0203 25.8189 32.5734 26.1603 33.1455 26.456C37.1616 28.5316 42.3101 28.2043 46.031 25.6369C46.4624 25.3392 46.8838 25.0051 47.1627 24.5613C47.4711 24.0705 47.5823 23.4834 47.8208 22.9551C48.3827 21.7109 49.5984 20.8866 50.3143 19.7241C50.8037 18.9294 51.044 17.9837 50.9934 17.0518C50.9284 15.8555 50.4047 14.7364 50.1509 13.5656C49.7272 11.6113 50.0016 9.37445 48.7552 7.81076C48.132 7.02892 47.2158 6.5484 46.3272 6.09005C44.1238 4.95347 41.7599 3.78413 39.2932 4.03408C38.1693 4.14799 37.0893 4.55554 35.9636 4.65033C35.0975 4.72327 34.225 4.60912 33.3575 4.66157C31.4115 4.77915 29.404 6.42817 28.1604 7.83787Z" fill="#BC7553"/>
<path d="M50.1506 13.5656C49.8364 12.1165 49.9059 10.512 49.4547 9.14182C49.4527 9.20803 49.4502 9.27408 49.447 9.33986C49.3933 10.4534 49.2033 11.5726 49.3589 12.6765C49.6194 14.5245 50.8275 16.3834 50.1451 18.1205C49.6507 19.3792 48.3155 20.0847 47.5289 21.1847C47.203 21.6405 46.9433 22.1911 46.4403 22.4381C45.9378 22.6847 45.2846 22.5725 44.8498 22.925C44.316 23.3577 44.4219 24.2185 44.0346 24.7862C43.8409 25.0702 43.5368 25.2591 43.2271 25.4085C42.2851 25.8631 41.2039 26.0239 40.1704 25.8632C38.8694 25.6608 37.6542 24.967 36.3376 24.9628C35.2854 24.9595 34.1216 25.3752 33.2495 24.7867C32.9567 24.589 32.739 24.2975 32.4559 24.0863C31.4817 23.3596 30.0848 23.7663 28.9177 23.4273C27.9502 23.1463 27.1968 22.3542 26.7334 21.4597C26.6258 21.2521 26.5424 21.0176 26.4658 20.7731C26.4772 20.8206 26.4886 20.868 26.5002 20.9153C26.884 22.478 27.5079 24.1735 28.9457 24.896C29.7118 25.2809 30.6019 25.3259 31.4117 25.6074C32.02 25.819 32.573 26.1604 33.1452 26.456C37.1613 28.5316 42.3097 28.2043 46.0307 25.6369C46.4621 25.3393 46.8835 25.0051 47.1624 24.5613C47.4708 24.0705 47.582 23.4835 47.8205 22.9552C48.3824 21.7109 49.598 20.8867 50.3139 19.7242C50.8033 18.9295 51.0437 17.9837 50.993 17.0518C50.9281 15.8555 50.4044 14.7365 50.1506 13.5656Z" fill="#9D4D27"/>
<path d="M26.6906 21.6216C26.8597 21.8571 27.051 22.0766 27.2627 22.2707C27.0584 22.0195 26.8811 21.7449 26.7334 21.4597C26.6258 21.2522 26.5424 21.0176 26.4658 20.7732C26.4772 20.8206 26.4886 20.8681 26.5002 20.9154C26.5576 21.1491 26.6205 21.3857 26.6906 21.6216Z" fill="#C68A4F"/>
<path d="M50.9927 17.0518C50.9277 15.8555 50.4041 14.7365 50.1502 13.5657C49.836 12.1165 49.9056 10.5121 49.4544 9.14185C49.4524 9.20806 49.4498 9.27411 49.4467 9.33989C49.4313 9.65916 49.4047 9.97891 49.3782 10.2986C49.4983 11.2394 49.5438 12.2163 49.7422 13.1314C49.996 14.3022 50.5197 15.4213 50.5847 16.6175C50.6353 17.5495 50.395 18.4952 49.9056 19.2899C49.1897 20.4524 47.974 21.2766 47.4122 22.5209C47.1736 23.0492 47.0624 23.6363 46.754 24.1271C46.4751 24.5709 46.0537 24.905 45.6224 25.2027C41.9014 27.7701 36.7529 28.0974 32.7368 26.0218C32.1647 25.7261 31.6117 25.3847 31.0033 25.1732C30.1935 24.8916 29.3035 24.8466 28.5374 24.4617C28.2703 24.3275 28.0315 24.1596 27.8169 23.9654C28.1251 24.3483 28.4954 24.6698 28.9454 24.896C29.7115 25.2809 30.6016 25.3259 31.4113 25.6074C32.0197 25.8189 32.5727 26.1603 33.1449 26.456C37.161 28.5316 42.3094 28.2043 46.0304 25.6369C46.4618 25.3393 46.8832 25.0051 47.162 24.5613C47.4705 24.0705 47.5816 23.4835 47.8202 22.9552C48.382 21.7109 49.5977 20.8867 50.3136 19.7242C50.8031 18.9295 51.0434 17.9838 50.9927 17.0518Z" fill="#C68A4F"/>
<path d="M45.6306 8.24089C45.6511 8.49177 45.5008 8.72709 45.3191 8.90126C45.1374 9.07544 44.9198 9.20994 44.7449 9.39094C44.7002 9.43716 44.6567 9.49011 44.6479 9.55382C44.6387 9.6208 44.6695 9.68618 44.7004 9.74634C44.8223 9.98346 44.9601 10.2175 45.0181 10.4777C45.0761 10.7379 45.0394 11.0372 44.8503 11.2252C44.6754 11.3991 44.4032 11.4437 44.1605 11.4001C43.9177 11.3565 43.6962 11.2371 43.4795 11.1193C43.75 11.3123 44.0402 11.4891 44.3632 11.5673C44.6862 11.6454 45.0491 11.6134 45.3173 11.4171C45.5855 11.2209 45.727 10.8408 45.5924 10.5369C45.5586 10.4604 45.5087 10.3888 45.4966 10.3059C45.4766 10.1687 45.5682 10.0359 45.6837 9.95916C45.7992 9.88238 45.9366 9.84786 46.0674 9.8017C46.3349 9.70724 46.5941 9.5486 46.7327 9.30099C46.9517 8.90972 46.8047 8.39464 46.5022 8.06363C46.1998 7.73263 45.7745 7.54585 45.3593 7.37662C44.7464 7.1268 44.0582 6.86167 43.3848 6.9692C44.036 7.22477 45.5549 7.31852 45.6306 8.24089Z" fill="#E2A359"/>
<path d="M29.8267 19.2777C29.8837 19.2285 29.9439 19.1776 30.0174 19.1612C30.1057 19.1413 30.1963 19.1745 30.2806 19.2072C30.5368 19.3063 30.7931 19.4054 31.0493 19.5046C31.1643 19.549 31.2852 19.5978 31.3602 19.6956C31.4216 19.7757 31.4453 19.8805 31.5103 19.9577C31.5878 20.0496 31.7122 20.088 31.8317 20.1006C32.3102 20.151 32.8001 19.8139 32.9239 19.349C32.9444 19.2721 32.954 19.1838 32.9086 19.1185C32.8737 19.0684 32.8143 19.043 32.762 19.0118C32.4872 18.8479 32.3877 18.4475 32.5538 18.174C32.4976 18.286 32.5443 18.4259 32.6254 18.5215C32.7065 18.6171 32.8169 18.6821 32.9142 18.7611C33.1527 18.9546 33.3142 19.2404 33.3569 19.5445C33.3771 19.6886 33.3697 19.8427 33.2976 19.9692C33.2388 20.0723 33.1429 20.1478 33.0557 20.2284C32.8327 20.4346 32.6552 20.69 32.5397 20.9709C32.4938 21.0824 32.455 21.2019 32.3694 21.2868C32.2839 21.3716 32.1321 21.4054 32.0449 21.3223C31.9208 21.2038 31.9477 20.9036 31.7776 20.9268C31.712 20.9357 31.671 20.9997 31.619 21.0407C31.4256 21.1934 31.1387 20.9924 31.0463 20.7639C30.9538 20.5355 30.9466 20.2662 30.7899 20.0759C30.6913 19.9563 30.5445 19.8848 30.3941 19.8472C30.1439 19.7846 29.8718 19.8095 29.6394 19.9215C29.3366 20.0674 29.1103 20.3625 29.0479 20.6928C29.1883 19.9503 29.2594 19.7672 29.8267 19.2777Z" fill="#E2A359"/>
<path d="M43.179 21.264C43.4659 21.0787 43.6633 20.7608 43.702 20.4215C43.7125 20.3302 43.7153 20.2294 43.7771 20.1613C43.8097 20.1253 43.8548 20.1036 43.8987 20.0828C44.4266 19.833 44.9544 19.583 45.4822 19.3332C45.0716 19.6757 44.4462 19.764 44.1681 20.2207C44.0967 20.338 44.0554 20.4707 44.0148 20.6018C43.9458 20.8242 43.8769 21.0465 43.808 21.2689C43.7842 21.3457 43.7579 21.4264 43.6984 21.4804C43.641 21.5324 43.5619 21.5513 43.4871 21.5715C42.7052 21.783 42.0285 22.3547 41.6895 23.0903C41.7876 22.726 41.8731 22.1621 42.1072 21.8594C42.3609 21.5314 42.8455 21.4793 43.179 21.264Z" fill="#E2A359"/>
<path d="M38.1564 11.8407C37.8733 12.1489 37.4366 12.3152 37.2373 12.6832C37.0866 12.9614 37.1049 13.2969 37.1272 13.6126C37.1514 13.954 37.1755 14.2954 37.1996 14.6368C37.2449 14.1302 37.2902 13.6236 37.3354 13.1169C37.3421 13.042 37.3497 12.9642 37.3875 12.8991C37.4481 12.7948 37.5704 12.7471 37.6784 12.6932C38.0449 12.5108 38.3209 12.1912 38.5867 11.8799C38.7042 11.7423 38.8253 11.5978 38.8683 11.4221C38.903 11.2803 38.8835 11.1318 38.8706 10.9864C38.8213 10.4449 38.8852 9.9146 39.0076 9.38739C38.7437 9.77997 38.5916 9.94532 38.5664 10.4233C38.5396 10.9321 38.5226 11.4421 38.1564 11.8407Z" fill="#E2A359"/>
<path d="M27.7335 10.7592C27.7642 11.5174 27.9529 12.3038 27.6934 13.017C27.546 13.4219 27.2686 13.8988 27.5393 14.2341C27.6905 14.4215 27.9708 14.4654 28.2002 14.3924C28.4296 14.3193 28.616 14.1509 28.7759 13.9708C29.2194 13.4716 29.5171 12.8444 29.6234 12.1852C29.7101 11.6476 29.6727 11.0905 29.8163 10.5652C30.0701 9.63589 30.8428 8.95078 31.6088 8.36654C31.9197 8.12936 32.2416 7.89351 32.4674 7.57424C32.7855 7.1245 32.8798 6.55889 32.9657 6.01476C32.9762 5.94781 32.9856 5.87444 32.9506 5.81645C32.8984 5.73015 32.776 5.72169 32.6773 5.74218C32.2691 5.82681 32.0005 6.20144 31.7109 6.50126C30.7497 7.49646 29.3888 7.9147 28.4944 8.99657C28.4556 8.9718 28.4865 8.95913 28.4385 8.94028C27.8553 9.3112 27.7076 10.1191 27.7335 10.7592Z" fill="#8F5236"/>
<path d="M36.2904 6.22479C36.3316 6.57197 36.3728 6.91916 36.4141 7.26638C36.4343 7.43678 36.4577 7.61563 36.5593 7.75394C36.776 8.04915 37.245 8.01529 37.5539 7.81852C37.8628 7.62175 38.0789 7.30943 38.3628 7.07799C38.7122 6.79314 39.1488 6.6422 39.5754 6.49667C39.9369 6.37336 40.3017 6.24929 40.6809 6.20339C41.3669 6.12037 42.1073 6.28893 42.7243 5.97768C42.7879 5.94559 42.8509 5.90712 42.8926 5.84933C43.022 5.6698 42.882 5.41343 42.7026 5.28381C42.3567 5.03392 41.895 5.01574 41.4717 5.06932C41.0484 5.12293 40.6292 5.23855 40.2029 5.2209C39.7683 5.20289 39.3523 5.04739 38.924 4.97108C37.9605 4.79941 36.1323 4.8932 36.2904 6.22479Z" fill="#8F5236"/>
<path d="M27.6105 15.7295C27.4198 15.9507 27.3002 16.2238 27.2028 16.4991C26.9173 17.3065 26.8008 18.1732 26.863 19.0273C26.8802 19.2644 26.9142 19.5096 27.0429 19.7094C27.2098 19.9687 27.525 20.1355 27.6037 20.4337C27.6342 20.5495 27.6296 20.685 27.7145 20.7695C27.8513 20.9055 28.1053 20.7735 28.1591 20.5882C28.2128 20.4029 28.1403 20.2078 28.0839 20.0233C27.9555 19.6032 27.9084 19.1585 27.9457 18.7208C27.9676 18.4643 28.0367 18.1818 28.2531 18.0426C28.4732 17.9011 28.7605 17.9595 29.016 18.016C29.4334 18.1084 29.923 18.1651 30.2405 17.8787C30.4682 17.6734 30.5368 17.3501 30.6725 17.0751C30.905 16.604 31.3516 16.2518 31.5226 15.755C31.6931 15.2598 31.5579 14.714 31.3781 14.2222C31.2242 13.8011 30.8311 13.3897 30.4557 13.8212C30.1946 14.1214 30.1799 14.5804 29.8327 14.8405C29.1659 15.3401 28.2242 15.0174 27.6105 15.7295Z" fill="#8F5236"/>
<path d="M30.758 10.7771C30.7407 11.0249 30.7935 11.2946 30.9749 11.4644C31.0912 11.5733 31.2465 11.6289 31.3984 11.677C31.6607 11.7601 31.9274 11.8293 32.1969 11.8844C32.5413 11.9547 32.8974 12.0018 33.2436 11.9411C33.6283 11.8735 33.9991 11.658 34.1906 11.3177C34.3822 10.9773 34.359 10.5098 34.0866 10.23C33.9208 10.0596 33.689 9.9736 33.4654 9.89274C32.9216 9.69607 32.2312 9.22491 31.6685 9.48202C31.167 9.71114 30.8027 10.2293 30.758 10.7771Z" fill="#683506"/>
<path d="M31.0409 15.8383C30.7018 15.8824 30.3646 16.052 30.1898 16.346C30.0682 16.5506 30.0344 16.7969 30.0427 17.0349C30.0485 17.2028 30.0748 17.3726 30.147 17.5244C30.3719 17.9973 30.9549 18.1633 31.3391 18.5193C31.4823 18.6521 31.6162 18.8226 31.8094 18.8508C31.9445 18.8705 32.078 18.8142 32.2018 18.7568C32.566 18.5883 32.9569 18.3565 33.0552 17.9675C33.128 17.68 33.019 17.3805 32.9036 17.1074C32.555 16.2819 31.997 15.7142 31.0409 15.8383Z" fill="#683506"/>
<path d="M36.8184 22.3529C36.8566 21.7958 37.1921 21.2839 37.6456 20.958C38.0991 20.6322 38.6594 20.4788 39.2166 20.4427C39.7081 20.4108 40.2708 20.5031 40.5463 20.9113C40.8388 21.3447 40.6072 22.0294 40.1118 22.1963C39.8535 22.2834 39.5385 22.2555 39.3465 22.449C39.1391 22.658 39.1936 23.0009 39.1244 23.2871C39.0139 23.7442 38.525 24.0669 38.0577 24.0144C37.4225 23.9431 36.7759 22.9709 36.8184 22.3529Z" fill="#683506"/>
<path d="M38.8676 14.7884C38.7535 15.0571 38.8782 15.4036 39.1375 15.538C39.3955 15.6717 39.7148 15.5995 39.9906 15.6914C40.2642 15.7827 40.4576 16.0203 40.6799 16.2041C40.9022 16.388 41.2238 16.5239 41.4723 16.3772C41.6758 16.257 41.7445 15.9935 41.7436 15.7571C41.743 15.6091 41.7219 15.4591 41.6608 15.3243C41.5709 15.1258 41.401 14.9743 41.2193 14.854C40.7495 14.5431 39.1822 14.0477 38.8676 14.7884Z" fill="#683506"/>
<path d="M46.265 15.1254C46.0502 15.4434 45.9841 15.8349 45.8972 16.2087C45.8016 16.6196 45.661 17.0455 45.3435 17.3234C45.225 17.4272 45.0793 17.5143 45.0189 17.6597C44.9836 17.7445 44.9825 17.8401 44.9972 17.9308C45.071 18.3859 45.5377 18.7057 45.9984 18.7227C46.4591 18.7398 46.8985 18.5113 47.2493 18.2122C47.6965 17.8309 48.0366 17.3252 48.2212 16.7672C48.3296 16.4393 48.3846 16.0822 48.296 15.7484C48.0783 14.9269 46.8355 14.2812 46.265 15.1254Z" fill="#683506"/>
<path d="M41.2399 6.94469C40.9447 6.94085 40.6281 7.07375 40.5006 7.34001C40.3859 7.57963 40.4457 7.86241 40.4165 8.12646C40.3772 8.48254 40.1759 8.79931 40.085 9.14586C40.0327 9.34534 40.0309 9.58924 40.1885 9.72224C40.3913 9.89341 40.6934 9.76933 40.9565 9.7346C41.4331 9.67167 41.9061 9.9384 42.3836 9.88254C42.7823 9.83592 43.1423 9.54535 43.2721 9.16548C43.4018 8.7856 43.2949 8.3355 43.008 8.05467C42.8684 7.91803 42.6929 7.82089 42.561 7.67683C42.1815 7.26236 41.8485 6.95261 41.2399 6.94469Z" fill="#683506"/>
<path d="M37.2825 20.7676C37.6901 20.482 38.1867 20.3534 38.6782 20.2751C38.9777 20.2274 39.2826 20.1964 39.5841 20.229C39.8423 20.257 40.0948 20.3318 40.3298 20.4423C40.3927 20.4718 40.4634 20.5047 40.5289 20.4814C40.5849 20.4615 40.6199 20.4052 40.6381 20.3486C40.7135 20.114 40.5685 19.8662 40.4011 19.6852C40.259 19.5316 40.091 19.3945 39.892 19.3295C39.4075 19.1713 38.9079 19.4674 38.4217 19.6204C38.0575 19.735 37.6703 19.7705 37.3136 19.907C36.7851 20.1092 36.3262 20.5865 36.3049 21.152C36.2997 21.2884 36.3195 21.4259 36.299 21.5608C36.2805 21.6825 36.2294 21.801 36.239 21.9237C36.2485 22.0457 36.3438 22.1611 36.4697 22.142C36.4842 21.5893 36.8347 21.0812 37.2825 20.7676Z" fill="#8F5236"/>
<path d="M44.6841 17.3006C44.5459 17.4407 44.4515 17.6499 44.519 17.8348C44.5793 17.9995 44.7457 18.0959 44.8659 18.2237C44.986 18.3516 45.0492 18.5831 44.907 18.6858C44.8596 18.72 44.7987 18.7308 44.7404 18.7278C44.5589 18.7186 44.4069 18.59 44.2854 18.4549C44.1082 18.2578 43.9606 18.0276 43.8971 17.7703C43.8337 17.5131 43.8617 17.2264 44.0098 17.0066C44.1432 16.8083 44.3613 16.6776 44.4882 16.4751C44.5812 16.3266 44.618 16.1509 44.6634 15.9815C44.7088 15.8122 44.7685 15.6385 44.8939 15.516C45.0193 15.3935 45.228 15.3398 45.3732 15.4381C45.6498 15.6252 45.5742 16.2889 45.4738 16.5575C45.3411 16.9126 44.9329 17.0483 44.6841 17.3006Z" fill="#8F5236"/>
<path d="M38.7061 14.2813C38.9242 14.0138 39.285 13.8702 39.6272 13.9146C39.7791 13.9343 39.9258 13.9881 40.0786 13.9972C40.2315 14.0063 40.4027 13.9577 40.479 13.8249C40.5857 13.6391 40.4534 13.4043 40.293 13.2622C39.8915 12.9067 39.2789 12.8108 38.788 13.0267C38.2971 13.2426 37.9537 13.7589 37.9445 14.2952C37.9389 14.6221 38.0462 14.9534 37.9712 15.2717C37.9457 15.3801 37.8991 15.4871 37.9085 15.5981C37.9294 15.8456 38.2673 15.9857 38.4744 15.8485C38.755 15.6627 38.6152 15.4079 38.5256 15.1818C38.4097 14.8892 38.5117 14.5198 38.7061 14.2813Z" fill="#8F5236"/>
<path opacity="0.43" d="M39.423 14.6592C39.3036 14.7084 39.2079 14.8118 39.1679 14.9345C39.1403 15.0195 39.1442 15.1252 39.2122 15.1831C39.2791 15.2402 39.3826 15.2286 39.4608 15.1883C39.5391 15.1481 39.6027 15.0843 39.6777 15.0383C39.939 14.8777 40.2725 14.9574 40.5781 14.9844C40.6105 14.9873 40.6474 14.9879 40.6704 14.9648C40.6943 14.9407 40.6915 14.899 40.6729 14.8706C40.6542 14.8421 40.6237 14.824 40.5937 14.808C40.3069 14.6547 39.7411 14.5281 39.423 14.6592Z" fill="white"/>
<path opacity="0.43" d="M32.07 9.73851C31.9558 9.75707 31.8412 9.77812 31.7331 9.81957C31.3328 9.97309 31.073 10.4284 31.1447 10.8512C31.1571 10.9248 31.1861 11.006 31.2549 11.035C31.3262 11.0651 31.4095 11.0236 31.4611 10.9658C31.6253 10.7815 31.586 10.4505 31.7961 10.3211C31.9065 10.2531 32.0499 10.2697 32.1715 10.3147C32.293 10.3596 32.4046 10.43 32.5287 10.4673C32.6031 10.4896 32.6855 10.4991 32.7569 10.4685C32.8888 10.412 32.9322 10.2339 32.8826 10.0992C32.7601 9.76599 32.3801 9.68814 32.07 9.73851Z" fill="white"/>
<path opacity="0.43" d="M30.649 16.2402C30.477 16.3716 30.3708 16.5824 30.3586 16.7985C30.3553 16.8568 30.3586 16.9162 30.3764 16.9718C30.4448 17.1848 30.6937 17.2774 30.8319 17.4533C30.8848 17.5206 30.9214 17.6005 30.9807 17.6622C31.0401 17.724 31.1349 17.7649 31.2118 17.7272C31.2887 17.6895 31.3144 17.5869 31.2918 17.5043C31.2692 17.4216 31.2105 17.3545 31.1535 17.2905C31.0936 17.2232 31.0337 17.1559 30.9738 17.0886C30.915 17.0226 30.8541 16.9528 30.8334 16.8668C30.7908 16.69 30.9749 16.5011 31.1528 16.5392C31.34 16.5793 31.4605 16.8085 31.6519 16.802C31.7886 16.7974 31.8946 16.6554 31.8877 16.5188C31.8808 16.3821 31.7829 16.2622 31.6625 16.1972C31.3873 16.0488 30.9005 16.048 30.649 16.2402Z" fill="white"/>
<path opacity="0.43" d="M37.4826 21.4951C37.3436 21.6219 37.2133 21.7649 37.1402 21.9383C37.0515 22.1486 37.0559 22.3963 37.152 22.6033C37.1918 22.6889 37.2487 22.7698 37.3296 22.8183C37.4106 22.8669 37.5184 22.8775 37.5986 22.8276C37.7418 22.7384 37.7271 22.5317 37.7338 22.3631C37.7528 21.8802 38.1289 21.4341 38.6017 21.3337C38.8832 21.2739 39.175 21.3266 39.4628 21.3209C39.5974 21.3183 39.7573 21.2846 39.8069 21.1595C39.8521 21.0453 39.7715 20.9125 39.6622 20.8566C39.5529 20.8007 39.4243 20.8018 39.3016 20.8042C38.9689 20.8107 38.6514 20.7738 38.3525 20.9279C38.0449 21.0867 37.731 21.2467 37.4826 21.4951Z" fill="white"/>
<path opacity="0.43" d="M46.9976 15.0485C46.8203 15.1082 46.6769 15.2431 46.5684 15.3955C46.5092 15.4787 46.4581 15.5695 46.4336 15.6686C46.4 15.8046 46.4181 15.9472 46.4147 16.0872C46.4083 16.3564 46.3194 16.623 46.163 16.8422C46.0876 16.9477 45.9935 17.0844 46.065 17.1925C46.1133 17.2655 46.2203 17.2791 46.3013 17.2459C46.3823 17.2128 46.4429 17.1446 46.499 17.0774C46.6236 16.9283 46.7438 16.7683 46.796 16.5812C46.8334 16.4471 46.8342 16.3046 46.8764 16.172C46.9185 16.0394 47.0205 15.9096 47.1592 15.8993C47.3409 15.8857 47.4859 16.077 47.6681 16.0769C47.8765 16.0767 48.0003 15.8126 47.9414 15.6127C47.8382 15.2623 47.3603 14.9264 46.9976 15.0485Z" fill="white"/>
<path opacity="0.43" d="M40.7554 7.69363C40.7554 7.74013 40.7647 7.78946 40.7964 7.82349C40.815 7.84344 40.84 7.85655 40.8659 7.86484C40.97 7.89803 41.0941 7.84872 41.1469 7.75323C41.161 7.72793 41.1705 7.69985 41.1891 7.67769C41.2236 7.63651 41.2824 7.62424 41.3361 7.62745C41.4715 7.63554 41.5973 7.73301 41.6389 7.86213C41.6574 7.91955 41.6603 7.98072 41.6721 8.03985C41.7017 8.18825 41.8022 8.33228 41.949 8.36888C42.053 8.39479 42.1696 8.36063 42.2432 8.28281C42.3168 8.205 42.3443 8.08658 42.3126 7.9843C42.2703 7.84786 42.1415 7.76095 42.0411 7.65944C41.9398 7.55716 41.8618 7.43195 41.7502 7.3411C41.4354 7.08496 40.7551 7.2067 40.7554 7.69363Z" fill="white"/>
<path d="M48.7602 16.2763C48.7669 16.4561 48.7465 16.639 48.6807 16.8065C48.464 17.3584 47.7875 17.6905 47.7329 18.2809C47.9134 18.1605 48.0353 17.9704 48.2016 17.831C48.3991 17.6654 48.649 17.5792 48.881 17.4669C49.1131 17.3546 49.3443 17.1984 49.4401 16.959C49.5158 16.7701 49.4948 16.5535 49.4251 16.3622C49.3556 16.1709 49.2408 15.9999 49.1272 15.8311C48.9373 15.5489 48.7474 15.2667 48.5575 14.9845C48.5162 14.9231 48.4536 14.8533 48.3826 14.8745C48.1599 14.9414 48.4496 15.3194 48.5065 15.4123C48.6637 15.6688 48.749 15.9766 48.7602 16.2763Z" fill="#E2A359"/>
<path d="M32.6762 23.6032C32.9602 23.5212 33.2805 23.5184 33.5142 23.3374C33.6911 23.2004 33.7852 22.9847 33.8677 22.7767C34.0428 22.3353 34.1971 21.8857 34.3298 21.4298C34.2203 22.0717 34.0627 22.7055 33.8588 23.3239C33.8275 23.4189 33.792 23.5181 33.7163 23.5834C33.6549 23.6364 33.5744 23.6604 33.4966 23.683C33.2697 23.7489 33.0428 23.8148 32.8159 23.8807C32.7648 23.8955 32.7105 23.9124 32.6767 23.9535C32.6233 24.0185 32.6422 24.1145 32.6648 24.1955C32.7575 24.5287 32.8639 24.858 32.9837 25.1824C32.6584 25.131 32.3573 24.9404 32.1717 24.6682C31.8929 24.259 32.2522 23.7256 32.6762 23.6032Z" fill="#E2A359"/>
<path opacity="0.43" d="M28.2576 10.1585C28.1951 10.5908 28.3576 11.0244 28.355 11.4611C28.3513 12.0891 28.0104 12.6654 27.9116 13.2856C28.0095 13.3477 28.1445 13.3215 28.236 13.2504C28.3276 13.1793 28.3836 13.0723 28.4281 12.9652C28.8023 12.0643 28.5421 10.972 29.0113 10.1166C29.2843 9.61889 29.7662 9.27632 30.1423 8.85112C30.1846 8.80339 30.2256 8.72831 30.1812 8.68256C30.1621 8.66283 30.1329 8.65725 30.1055 8.65428C29.8449 8.6261 29.6774 8.75268 29.4903 8.90714C29.3327 9.03723 29.2469 9.07961 29.0508 9.16531C28.6448 9.34293 28.3221 9.71218 28.2576 10.1585Z" fill="white"/>
<path opacity="0.43" d="M29.3623 15.7235C28.9945 15.8216 28.6033 15.8448 28.2586 16.0063C27.8114 16.216 27.4915 16.6436 27.3314 17.1108C27.1713 17.5781 27.1565 18.0835 27.1965 18.5758C27.3876 18.5969 27.5664 18.4589 27.6599 18.2909C27.7534 18.123 27.7818 17.9281 27.8221 17.7401C27.8903 17.4227 28.005 17.0999 28.2424 16.8785C28.4799 16.6571 28.8668 16.5701 29.1352 16.7528C29.2475 16.8292 29.3478 16.9515 29.4835 16.9467C29.6631 16.9402 29.7461 16.7275 29.8045 16.5575C29.919 16.2249 30.106 15.9173 30.3487 15.6627C30.5237 15.4791 30.7063 15.1356 30.32 15.256C29.992 15.3581 29.7161 15.6291 29.3623 15.7235Z" fill="white"/>
<path d="M33.8185 9.08123C34.0242 9.35709 34.3514 9.50804 34.6513 9.67677C34.842 9.78403 35.0396 9.91886 35.1065 10.1272C35.2059 10.4371 34.9758 10.7586 34.9831 11.084C34.9889 11.3406 35.1586 11.5861 35.3966 11.6823C35.6346 11.7784 35.9272 11.7196 36.1096 11.539C36.2837 11.3666 36.3476 11.1157 36.4558 10.8958C36.5995 10.6039 36.8317 10.3563 37.1138 10.1942C37.3321 10.0687 37.579 9.99313 37.7819 9.84402C38.1661 9.56172 38.3269 9.06743 38.405 8.59717C38.4203 8.50485 38.4272 8.39442 38.3557 8.33399C38.3077 8.29334 38.2388 8.28987 38.176 8.29481C37.6929 8.33302 37.2784 8.74545 36.7955 8.7044C36.4818 8.67773 36.1979 8.43617 36.1214 8.13073C36.0494 7.84341 36.1383 7.50251 35.9529 7.27157C35.8737 7.17304 35.7551 7.11307 35.6336 7.07841C35.1104 6.92917 34.4986 7.27171 34.3524 7.79578C34.3107 7.94489 34.3019 8.16008 34.1615 8.25708C34.0407 8.3405 33.9045 8.23899 33.8087 8.29177C33.5499 8.43436 33.6703 8.88262 33.8185 9.08123Z" fill="#8F5236"/>
<path d="M46.3473 10.6108C46.3174 10.7145 46.3591 10.827 46.4231 10.9139C46.4872 11.0008 46.5722 11.0696 46.6455 11.1488C46.7773 11.291 46.871 11.4682 46.9144 11.6571C46.9262 11.7087 46.9415 11.7698 46.9912 11.7878C47.0287 11.8014 47.0699 11.7832 47.104 11.7624C47.37 11.6003 47.4964 11.2414 47.3908 10.9484C47.3562 10.8523 47.3004 10.7652 47.2389 10.6837C47.1639 10.5844 47.0767 10.4897 46.9647 10.4353C46.8048 10.3575 46.4067 10.4043 46.3473 10.6108Z" fill="#E2A359"/>
<path d="M47.6549 9.51511C47.5065 9.53974 47.3397 9.63016 47.3351 9.78053C47.3319 9.88231 47.4102 9.97253 47.5028 10.0147C47.5955 10.057 47.7004 10.061 47.8022 10.0631C47.9393 10.066 48.1125 10.0421 48.1518 9.91062C48.1719 9.84331 48.1455 9.77 48.1056 9.71218C47.9947 9.55131 47.7713 9.47861 47.587 9.54338L47.6549 9.51511Z" fill="#E2A359"/>
<path d="M29.5301 20.6669C29.4814 20.8 29.4639 20.9506 29.5162 21.0822C29.5686 21.2138 29.7033 21.3181 29.8442 21.304C29.9483 21.2936 30.0368 21.2244 30.1098 21.1495C30.247 21.0088 30.3555 20.8269 30.3577 20.6304C30.3648 19.9809 29.6825 20.2505 29.5301 20.6669Z" fill="#E2A359"/>
<path d="M29.71 22.3855C29.5097 22.3864 29.3119 22.4823 29.1872 22.639C29.1668 22.6646 29.1478 22.6929 29.1426 22.7252C29.1365 22.7629 29.1501 22.8012 29.1693 22.8342C29.2569 22.9845 29.4451 23.0397 29.6171 23.0654C29.7753 23.089 29.9585 23.0906 30.0695 22.9755C30.1841 22.8565 30.1638 22.6453 30.0464 22.5291C29.9317 22.4156 29.7397 22.3902 29.5995 22.47L29.71 22.3855Z" fill="#E2A359"/>
<path d="M33.1818 12.5158C33.6435 12.4469 34.1008 12.1866 34.2913 11.7603C34.2676 12.1067 34.2273 12.4892 33.971 12.7234C33.876 12.8102 33.7588 12.8682 33.6414 12.921C33.1955 13.1215 32.6847 13.2618 32.2216 13.1052C31.8264 12.9715 31.4873 12.6296 31.0707 12.6517C31.0008 12.6554 30.9295 12.6695 30.8618 12.6516C30.7942 12.6336 30.7315 12.5684 30.7477 12.5002C30.7588 12.4531 30.8025 12.4215 30.8447 12.3978C31.5 12.029 32.4568 12.624 33.1818 12.5158Z" fill="#E2A359"/>
<path d="M48.5851 12.5088C48.3957 12.6947 48.2762 12.9422 48.0875 13.1288C47.6805 13.5313 47.0464 13.5729 46.4744 13.5533C45.9023 13.5336 45.2917 13.4856 44.7954 13.7709C45.5132 13.6322 46.2645 13.6707 46.9644 13.8819C47.1651 13.9424 47.3765 14.0177 47.5792 13.9639C48.0076 13.8503 48.1969 13.2187 48.6401 13.2209C48.8098 13.2217 48.9606 13.3227 49.0997 13.4198C49.3532 13.5967 49.6067 13.7736 49.8602 13.9505C49.6169 13.475 49.4755 11.6343 48.5851 12.5088Z" fill="#E2A359"/>
<path d="M48.1604 7.83787C47.3029 8.80973 46.6004 10.0407 46.7177 11.3314C46.7682 11.8868 46.9691 12.4266 46.9588 12.9843C46.9457 13.6896 46.5994 14.3386 46.3712 15.0061C45.7247 16.8966 46.024 18.9749 46.5006 20.9153C46.8844 22.478 47.5082 24.1735 48.9461 24.8959C49.7121 25.2808 50.6022 25.3258 51.412 25.6074C52.0203 25.8189 52.5734 26.1603 53.1455 26.456C57.1616 28.5316 62.3101 28.2043 66.031 25.6369C66.4624 25.3392 66.8838 25.0051 67.1627 24.5613C67.4711 24.0705 67.5823 23.4834 67.8208 22.9551C68.3827 21.7109 69.5984 20.8866 70.3143 19.7241C70.8037 18.9294 71.044 17.9837 70.9934 17.0518C70.9284 15.8555 70.4047 14.7364 70.1509 13.5656C69.7272 11.6113 70.0016 9.37445 68.7552 7.81076C68.132 7.02892 67.2158 6.5484 66.3272 6.09005C64.1238 4.95347 61.7599 3.78413 59.2932 4.03408C58.1693 4.14799 57.0893 4.55554 55.9636 4.65033C55.0975 4.72327 54.225 4.60912 53.3575 4.66157C51.4115 4.77915 49.404 6.42817 48.1604 7.83787Z" fill="#BC7553"/>
<path d="M70.1506 13.5656C69.8364 12.1165 69.9059 10.512 69.4547 9.14182C69.4527 9.20803 69.4502 9.27408 69.447 9.33986C69.3933 10.4534 69.2033 11.5726 69.3589 12.6765C69.6194 14.5245 70.8275 16.3834 70.1451 18.1205C69.6507 19.3792 68.3155 20.0847 67.5289 21.1847C67.203 21.6405 66.9433 22.1911 66.4403 22.4381C65.9378 22.6847 65.2846 22.5725 64.8498 22.925C64.316 23.3577 64.4219 24.2185 64.0346 24.7862C63.8409 25.0702 63.5368 25.2591 63.2271 25.4085C62.2851 25.8631 61.2039 26.0239 60.1704 25.8632C58.8694 25.6608 57.6542 24.967 56.3376 24.9628C55.2854 24.9595 54.1216 25.3752 53.2495 24.7867C52.9567 24.589 52.739 24.2975 52.4559 24.0863C51.4817 23.3596 50.0848 23.7663 48.9177 23.4273C47.9502 23.1463 47.1968 22.3542 46.7334 21.4597C46.6258 21.2521 46.5424 21.0176 46.4658 20.7731C46.4772 20.8206 46.4886 20.868 46.5002 20.9153C46.884 22.478 47.5079 24.1735 48.9457 24.896C49.7118 25.2809 50.6019 25.3259 51.4117 25.6074C52.02 25.819 52.573 26.1604 53.1452 26.456C57.1613 28.5316 62.3097 28.2043 66.0307 25.6369C66.4621 25.3393 66.8835 25.0051 67.1624 24.5613C67.4708 24.0705 67.582 23.4835 67.8205 22.9552C68.3824 21.7109 69.598 20.8867 70.3139 19.7242C70.8033 18.9295 71.0437 17.9837 70.993 17.0518C70.9281 15.8555 70.4044 14.7365 70.1506 13.5656Z" fill="#9D4D27"/>
<path d="M46.6906 21.6216C46.8597 21.8571 47.051 22.0766 47.2627 22.2707C47.0584 22.0195 46.8811 21.7449 46.7334 21.4597C46.6258 21.2522 46.5424 21.0176 46.4658 20.7732C46.4772 20.8206 46.4886 20.8681 46.5002 20.9154C46.5576 21.1491 46.6205 21.3857 46.6906 21.6216Z" fill="#C68A4F"/>
<path d="M70.9927 17.0518C70.9277 15.8555 70.4041 14.7365 70.1502 13.5657C69.836 12.1165 69.9056 10.5121 69.4544 9.14185C69.4524 9.20806 69.4498 9.27411 69.4467 9.33989C69.4313 9.65916 69.4047 9.97891 69.3782 10.2986C69.4983 11.2394 69.5438 12.2163 69.7422 13.1314C69.996 14.3022 70.5197 15.4213 70.5847 16.6175C70.6353 17.5495 70.395 18.4952 69.9056 19.2899C69.1897 20.4524 67.974 21.2766 67.4122 22.5209C67.1736 23.0492 67.0624 23.6363 66.754 24.1271C66.4751 24.5709 66.0537 24.905 65.6224 25.2027C61.9014 27.7701 56.7529 28.0974 52.7368 26.0218C52.1647 25.7261 51.6117 25.3847 51.0033 25.1732C50.1935 24.8916 49.3035 24.8466 48.5374 24.4617C48.2703 24.3275 48.0315 24.1596 47.8169 23.9654C48.1251 24.3483 48.4954 24.6698 48.9454 24.896C49.7115 25.2809 50.6016 25.3259 51.4113 25.6074C52.0197 25.8189 52.5727 26.1603 53.1449 26.456C57.161 28.5316 62.3094 28.2043 66.0304 25.6369C66.4618 25.3393 66.8832 25.0051 67.162 24.5613C67.4705 24.0705 67.5816 23.4835 67.8202 22.9552C68.382 21.7109 69.5977 20.8867 70.3136 19.7242C70.8031 18.9295 71.0434 17.9838 70.9927 17.0518Z" fill="#C68A4F"/>
<path d="M65.6306 8.24089C65.6511 8.49177 65.5008 8.72709 65.3191 8.90126C65.1374 9.07544 64.9198 9.20994 64.7449 9.39094C64.7002 9.43716 64.6567 9.49011 64.6479 9.55382C64.6387 9.6208 64.6695 9.68618 64.7004 9.74634C64.8223 9.98346 64.9601 10.2175 65.0181 10.4777C65.0761 10.7379 65.0394 11.0372 64.8503 11.2252C64.6754 11.3991 64.4032 11.4437 64.1605 11.4001C63.9177 11.3565 63.6962 11.2371 63.4795 11.1193C63.75 11.3123 64.0402 11.4891 64.3632 11.5673C64.6862 11.6454 65.0491 11.6134 65.3173 11.4171C65.5855 11.2209 65.727 10.8408 65.5924 10.5369C65.5586 10.4604 65.5087 10.3888 65.4966 10.3059C65.4766 10.1687 65.5682 10.0359 65.6837 9.95916C65.7992 9.88238 65.9366 9.84786 66.0674 9.8017C66.3349 9.70724 66.5941 9.5486 66.7327 9.30099C66.9517 8.90972 66.8047 8.39464 66.5022 8.06363C66.1998 7.73263 65.7745 7.54585 65.3593 7.37662C64.7464 7.1268 64.0582 6.86167 63.3848 6.9692C64.036 7.22477 65.5549 7.31852 65.6306 8.24089Z" fill="#E2A359"/>
<path d="M49.8267 19.2777C49.8837 19.2285 49.9439 19.1776 50.0174 19.1612C50.1057 19.1413 50.1963 19.1745 50.2806 19.2072C50.5368 19.3063 50.7931 19.4054 51.0493 19.5046C51.1643 19.549 51.2852 19.5978 51.3602 19.6956C51.4216 19.7757 51.4453 19.8805 51.5103 19.9577C51.5878 20.0496 51.7122 20.088 51.8317 20.1006C52.3102 20.151 52.8001 19.8139 52.9239 19.349C52.9444 19.2721 52.954 19.1838 52.9086 19.1185C52.8737 19.0684 52.8143 19.043 52.762 19.0118C52.4872 18.8479 52.3877 18.4475 52.5538 18.174C52.4976 18.286 52.5443 18.4259 52.6254 18.5215C52.7065 18.6171 52.8169 18.6821 52.9142 18.7611C53.1527 18.9546 53.3142 19.2404 53.3569 19.5445C53.3771 19.6886 53.3697 19.8427 53.2976 19.9692C53.2388 20.0723 53.1429 20.1478 53.0557 20.2284C52.8327 20.4346 52.6552 20.69 52.5397 20.9709C52.4938 21.0824 52.455 21.2019 52.3694 21.2868C52.2839 21.3716 52.1321 21.4054 52.0449 21.3223C51.9208 21.2038 51.9477 20.9036 51.7776 20.9268C51.712 20.9357 51.671 20.9997 51.619 21.0407C51.4256 21.1934 51.1387 20.9924 51.0463 20.7639C50.9538 20.5355 50.9466 20.2662 50.7899 20.0759C50.6913 19.9563 50.5445 19.8848 50.3941 19.8472C50.1439 19.7846 49.8718 19.8095 49.6394 19.9215C49.3366 20.0674 49.1103 20.3625 49.0479 20.6928C49.1883 19.9503 49.2594 19.7672 49.8267 19.2777Z" fill="#E2A359"/>
<path d="M63.179 21.264C63.4659 21.0787 63.6633 20.7608 63.702 20.4215C63.7125 20.3302 63.7153 20.2294 63.7771 20.1613C63.8097 20.1253 63.8548 20.1036 63.8987 20.0828C64.4266 19.833 64.9544 19.583 65.4822 19.3332C65.0716 19.6757 64.4462 19.764 64.1681 20.2207C64.0967 20.338 64.0554 20.4707 64.0148 20.6018C63.9458 20.8242 63.8769 21.0465 63.808 21.2689C63.7842 21.3457 63.7579 21.4264 63.6984 21.4804C63.641 21.5324 63.5619 21.5513 63.4871 21.5715C62.7052 21.783 62.0285 22.3547 61.6895 23.0903C61.7876 22.726 61.8731 22.1621 62.1072 21.8594C62.3609 21.5314 62.8455 21.4793 63.179 21.264Z" fill="#E2A359"/>
<path d="M58.1564 11.8407C57.8733 12.1489 57.4366 12.3152 57.2373 12.6832C57.0866 12.9614 57.1049 13.2969 57.1272 13.6126C57.1514 13.954 57.1755 14.2954 57.1996 14.6368C57.2449 14.1302 57.2902 13.6236 57.3354 13.1169C57.3421 13.042 57.3497 12.9642 57.3875 12.8991C57.4481 12.7948 57.5704 12.7471 57.6784 12.6932C58.0449 12.5108 58.3209 12.1912 58.5867 11.8799C58.7042 11.7423 58.8253 11.5978 58.8683 11.4221C58.903 11.2803 58.8835 11.1318 58.8706 10.9864C58.8213 10.4449 58.8852 9.9146 59.0076 9.38739C58.7437 9.77997 58.5916 9.94532 58.5664 10.4233C58.5396 10.9321 58.5226 11.4421 58.1564 11.8407Z" fill="#E2A359"/>
<path d="M47.7335 10.7592C47.7642 11.5174 47.9529 12.3038 47.6934 13.017C47.546 13.4219 47.2686 13.8988 47.5393 14.2341C47.6905 14.4215 47.9708 14.4654 48.2002 14.3924C48.4296 14.3193 48.616 14.1509 48.7759 13.9708C49.2194 13.4716 49.5171 12.8444 49.6234 12.1852C49.7101 11.6476 49.6727 11.0905 49.8163 10.5652C50.0701 9.63589 50.8428 8.95078 51.6088 8.36654C51.9197 8.12936 52.2416 7.89351 52.4674 7.57424C52.7855 7.1245 52.8798 6.55889 52.9657 6.01476C52.9762 5.94781 52.9856 5.87444 52.9506 5.81645C52.8984 5.73015 52.776 5.72169 52.6773 5.74218C52.2691 5.82681 52.0005 6.20144 51.7109 6.50126C50.7497 7.49646 49.3888 7.9147 48.4944 8.99657C48.4556 8.9718 48.4865 8.95913 48.4385 8.94028C47.8553 9.3112 47.7076 10.1191 47.7335 10.7592Z" fill="#8F5236"/>
<path d="M56.2904 6.22479C56.3316 6.57197 56.3728 6.91916 56.4141 7.26638C56.4343 7.43678 56.4577 7.61563 56.5593 7.75394C56.776 8.04915 57.245 8.01529 57.5539 7.81852C57.8628 7.62175 58.0789 7.30943 58.3628 7.07799C58.7122 6.79314 59.1488 6.6422 59.5754 6.49667C59.9369 6.37336 60.3017 6.24929 60.6809 6.20339C61.3669 6.12037 62.1073 6.28893 62.7243 5.97768C62.7879 5.94559 62.8509 5.90712 62.8926 5.84933C63.022 5.6698 62.882 5.41343 62.7026 5.28381C62.3567 5.03392 61.895 5.01574 61.4717 5.06932C61.0484 5.12293 60.6292 5.23855 60.2029 5.2209C59.7683 5.20289 59.3523 5.04739 58.924 4.97108C57.9605 4.79941 56.1323 4.8932 56.2904 6.22479Z" fill="#8F5236"/>
<path d="M47.6105 15.7295C47.4198 15.9507 47.3002 16.2238 47.2028 16.4991C46.9173 17.3065 46.8008 18.1732 46.863 19.0273C46.8802 19.2644 46.9142 19.5096 47.0429 19.7094C47.2098 19.9687 47.525 20.1355 47.6037 20.4337C47.6342 20.5495 47.6296 20.685 47.7145 20.7695C47.8513 20.9055 48.1053 20.7735 48.1591 20.5882C48.2128 20.4029 48.1403 20.2078 48.0839 20.0233C47.9555 19.6032 47.9084 19.1585 47.9457 18.7208C47.9676 18.4643 48.0367 18.1818 48.2531 18.0426C48.4732 17.9011 48.7605 17.9595 49.016 18.016C49.4334 18.1084 49.923 18.1651 50.2405 17.8787C50.4682 17.6734 50.5368 17.3501 50.6725 17.0751C50.905 16.604 51.3516 16.2518 51.5226 15.755C51.6931 15.2598 51.5579 14.714 51.3781 14.2222C51.2242 13.8011 50.8311 13.3897 50.4557 13.8212C50.1946 14.1214 50.1799 14.5804 49.8327 14.8405C49.1659 15.3401 48.2242 15.0174 47.6105 15.7295Z" fill="#8F5236"/>
<path d="M50.758 10.7771C50.7407 11.0249 50.7935 11.2946 50.9749 11.4644C51.0912 11.5733 51.2465 11.6289 51.3984 11.677C51.6607 11.7601 51.9274 11.8293 52.1969 11.8844C52.5413 11.9547 52.8974 12.0018 53.2436 11.9411C53.6283 11.8735 53.9991 11.658 54.1906 11.3177C54.3822 10.9773 54.359 10.5098 54.0866 10.23C53.9208 10.0596 53.689 9.9736 53.4654 9.89274C52.9216 9.69607 52.2312 9.22491 51.6685 9.48202C51.167 9.71114 50.8027 10.2293 50.758 10.7771Z" fill="#683506"/>
<path d="M51.0409 15.8383C50.7018 15.8824 50.3646 16.052 50.1898 16.346C50.0682 16.5506 50.0344 16.7969 50.0427 17.0349C50.0485 17.2028 50.0748 17.3726 50.147 17.5244C50.3719 17.9973 50.9549 18.1633 51.3391 18.5193C51.4823 18.6521 51.6162 18.8226 51.8094 18.8508C51.9445 18.8705 52.078 18.8142 52.2018 18.7568C52.566 18.5883 52.9569 18.3565 53.0552 17.9675C53.128 17.68 53.019 17.3805 52.9036 17.1074C52.555 16.2819 51.997 15.7142 51.0409 15.8383Z" fill="#683506"/>
<path d="M56.8184 22.3529C56.8566 21.7958 57.1921 21.2839 57.6456 20.958C58.0991 20.6322 58.6594 20.4788 59.2166 20.4427C59.7081 20.4108 60.2708 20.5031 60.5463 20.9113C60.8388 21.3447 60.6072 22.0294 60.1118 22.1963C59.8535 22.2834 59.5385 22.2555 59.3465 22.449C59.1391 22.658 59.1936 23.0009 59.1244 23.2871C59.0139 23.7442 58.525 24.0669 58.0577 24.0144C57.4225 23.9431 56.7759 22.9709 56.8184 22.3529Z" fill="#683506"/>
<path d="M58.8676 14.7884C58.7535 15.0571 58.8782 15.4036 59.1375 15.538C59.3955 15.6717 59.7148 15.5995 59.9906 15.6914C60.2642 15.7827 60.4576 16.0203 60.6799 16.2041C60.9022 16.388 61.2238 16.5239 61.4723 16.3772C61.6758 16.257 61.7445 15.9935 61.7436 15.7571C61.743 15.6091 61.7219 15.4591 61.6608 15.3243C61.5709 15.1258 61.401 14.9743 61.2193 14.854C60.7495 14.5431 59.1822 14.0477 58.8676 14.7884Z" fill="#683506"/>
<path d="M66.265 15.1254C66.0502 15.4434 65.9841 15.8349 65.8972 16.2087C65.8016 16.6196 65.661 17.0455 65.3435 17.3234C65.225 17.4272 65.0793 17.5143 65.0189 17.6597C64.9836 17.7445 64.9825 17.8401 64.9972 17.9308C65.071 18.3859 65.5377 18.7057 65.9984 18.7227C66.4591 18.7398 66.8985 18.5113 67.2493 18.2122C67.6965 17.8309 68.0366 17.3252 68.2212 16.7672C68.3296 16.4393 68.3846 16.0822 68.296 15.7484C68.0783 14.9269 66.8355 14.2812 66.265 15.1254Z" fill="#683506"/>
<path d="M61.2399 6.94469C60.9447 6.94085 60.6281 7.07375 60.5006 7.34001C60.3859 7.57963 60.4457 7.86241 60.4165 8.12646C60.3772 8.48254 60.1759 8.79931 60.085 9.14586C60.0327 9.34534 60.0309 9.58924 60.1885 9.72224C60.3913 9.89341 60.6934 9.76933 60.9565 9.7346C61.4331 9.67167 61.9061 9.9384 62.3836 9.88254C62.7823 9.83592 63.1423 9.54535 63.2721 9.16548C63.4018 8.7856 63.2949 8.3355 63.008 8.05467C62.8684 7.91803 62.6929 7.82089 62.561 7.67683C62.1815 7.26236 61.8485 6.95261 61.2399 6.94469Z" fill="#683506"/>
<path d="M57.2825 20.7676C57.6901 20.482 58.1867 20.3534 58.6782 20.2751C58.9777 20.2274 59.2826 20.1964 59.5841 20.229C59.8423 20.257 60.0948 20.3318 60.3298 20.4423C60.3927 20.4718 60.4634 20.5047 60.5289 20.4814C60.5849 20.4615 60.6199 20.4052 60.6381 20.3486C60.7135 20.114 60.5685 19.8662 60.4011 19.6852C60.259 19.5316 60.091 19.3945 59.892 19.3295C59.4075 19.1713 58.9079 19.4674 58.4217 19.6204C58.0575 19.735 57.6703 19.7705 57.3136 19.907C56.7851 20.1092 56.3262 20.5865 56.3049 21.152C56.2997 21.2884 56.3195 21.4259 56.299 21.5608C56.2805 21.6825 56.2294 21.801 56.239 21.9237C56.2485 22.0457 56.3438 22.1611 56.4697 22.142C56.4842 21.5893 56.8347 21.0812 57.2825 20.7676Z" fill="#8F5236"/>
<path d="M64.6841 17.3006C64.5459 17.4407 64.4515 17.6499 64.519 17.8348C64.5793 17.9995 64.7457 18.0959 64.8659 18.2237C64.986 18.3516 65.0492 18.5831 64.907 18.6858C64.8596 18.72 64.7987 18.7308 64.7404 18.7278C64.5589 18.7186 64.4069 18.59 64.2854 18.4549C64.1082 18.2578 63.9606 18.0276 63.8971 17.7703C63.8337 17.5131 63.8617 17.2264 64.0098 17.0066C64.1432 16.8083 64.3613 16.6776 64.4882 16.4751C64.5812 16.3266 64.618 16.1509 64.6634 15.9815C64.7088 15.8122 64.7685 15.6385 64.8939 15.516C65.0193 15.3935 65.228 15.3398 65.3732 15.4381C65.6498 15.6252 65.5742 16.2889 65.4738 16.5575C65.3411 16.9126 64.9329 17.0483 64.6841 17.3006Z" fill="#8F5236"/>
<path d="M58.7061 14.2813C58.9242 14.0138 59.285 13.8702 59.6272 13.9146C59.7791 13.9343 59.9258 13.9881 60.0786 13.9972C60.2315 14.0063 60.4027 13.9577 60.479 13.8249C60.5857 13.6391 60.4534 13.4043 60.293 13.2622C59.8915 12.9067 59.2789 12.8108 58.788 13.0267C58.2971 13.2426 57.9537 13.7589 57.9445 14.2952C57.9389 14.6221 58.0462 14.9534 57.9712 15.2717C57.9457 15.3801 57.8991 15.4871 57.9085 15.5981C57.9294 15.8456 58.2673 15.9857 58.4744 15.8485C58.755 15.6627 58.6152 15.4079 58.5256 15.1818C58.4097 14.8892 58.5117 14.5198 58.7061 14.2813Z" fill="#8F5236"/>
<path opacity="0.43" d="M59.423 14.6592C59.3036 14.7084 59.2079 14.8118 59.1679 14.9345C59.1403 15.0195 59.1442 15.1252 59.2122 15.1831C59.2791 15.2402 59.3826 15.2286 59.4608 15.1883C59.5391 15.1481 59.6027 15.0843 59.6777 15.0383C59.939 14.8777 60.2725 14.9574 60.5781 14.9844C60.6105 14.9873 60.6474 14.9879 60.6704 14.9648C60.6943 14.9407 60.6915 14.899 60.6729 14.8706C60.6542 14.8421 60.6237 14.824 60.5937 14.808C60.3069 14.6547 59.7411 14.5281 59.423 14.6592Z" fill="white"/>
<path opacity="0.43" d="M52.07 9.73851C51.9558 9.75707 51.8412 9.77812 51.7331 9.81957C51.3328 9.97309 51.073 10.4284 51.1447 10.8512C51.1571 10.9248 51.1861 11.006 51.2549 11.035C51.3262 11.0651 51.4095 11.0236 51.4611 10.9658C51.6253 10.7815 51.586 10.4505 51.7961 10.3211C51.9065 10.2531 52.0499 10.2697 52.1715 10.3147C52.293 10.3596 52.4046 10.43 52.5287 10.4673C52.6031 10.4896 52.6855 10.4991 52.7569 10.4685C52.8888 10.412 52.9322 10.2339 52.8826 10.0992C52.7601 9.76599 52.3801 9.68814 52.07 9.73851Z" fill="white"/>
<path opacity="0.43" d="M50.649 16.2402C50.477 16.3716 50.3708 16.5824 50.3586 16.7985C50.3553 16.8568 50.3586 16.9162 50.3764 16.9718C50.4448 17.1848 50.6937 17.2774 50.8319 17.4533C50.8848 17.5206 50.9214 17.6005 50.9807 17.6622C51.0401 17.724 51.1349 17.7649 51.2118 17.7272C51.2887 17.6895 51.3144 17.5869 51.2918 17.5043C51.2692 17.4216 51.2105 17.3545 51.1535 17.2905C51.0936 17.2232 51.0337 17.1559 50.9738 17.0886C50.915 17.0226 50.8541 16.9528 50.8334 16.8668C50.7908 16.69 50.9749 16.5011 51.1528 16.5392C51.34 16.5793 51.4605 16.8085 51.6519 16.802C51.7886 16.7974 51.8946 16.6554 51.8877 16.5188C51.8808 16.3821 51.7829 16.2622 51.6625 16.1972C51.3873 16.0488 50.9005 16.048 50.649 16.2402Z" fill="white"/>
<path opacity="0.43" d="M57.4826 21.4951C57.3436 21.6219 57.2133 21.7649 57.1402 21.9383C57.0515 22.1486 57.0559 22.3963 57.152 22.6033C57.1918 22.6889 57.2487 22.7698 57.3296 22.8183C57.4106 22.8669 57.5184 22.8775 57.5986 22.8276C57.7418 22.7384 57.7271 22.5317 57.7338 22.3631C57.7528 21.8802 58.1289 21.4341 58.6017 21.3337C58.8832 21.2739 59.175 21.3266 59.4628 21.3209C59.5974 21.3183 59.7573 21.2846 59.8069 21.1595C59.8521 21.0453 59.7715 20.9125 59.6622 20.8566C59.5529 20.8007 59.4243 20.8018 59.3016 20.8042C58.9689 20.8107 58.6514 20.7738 58.3525 20.9279C58.0449 21.0867 57.731 21.2467 57.4826 21.4951Z" fill="white"/>
<path opacity="0.43" d="M66.9976 15.0485C66.8203 15.1082 66.6769 15.2431 66.5684 15.3955C66.5092 15.4787 66.4581 15.5695 66.4336 15.6686C66.4 15.8046 66.4181 15.9472 66.4147 16.0872C66.4083 16.3564 66.3194 16.623 66.163 16.8422C66.0876 16.9477 65.9935 17.0844 66.065 17.1925C66.1133 17.2655 66.2203 17.2791 66.3013 17.2459C66.3823 17.2128 66.4429 17.1446 66.499 17.0774C66.6236 16.9283 66.7438 16.7683 66.796 16.5812C66.8334 16.4471 66.8342 16.3046 66.8764 16.172C66.9185 16.0394 67.0205 15.9096 67.1592 15.8993C67.3409 15.8857 67.4859 16.077 67.6681 16.0769C67.8765 16.0767 68.0003 15.8126 67.9414 15.6127C67.8382 15.2623 67.3603 14.9264 66.9976 15.0485Z" fill="white"/>
<path opacity="0.43" d="M60.7554 7.69363C60.7554 7.74013 60.7647 7.78946 60.7964 7.82349C60.815 7.84344 60.84 7.85655 60.8659 7.86484C60.97 7.89803 61.0941 7.84872 61.1469 7.75323C61.161 7.72793 61.1705 7.69985 61.1891 7.67769C61.2236 7.63651 61.2824 7.62424 61.3361 7.62745C61.4715 7.63554 61.5973 7.73301 61.6389 7.86213C61.6574 7.91955 61.6603 7.98072 61.6721 8.03985C61.7017 8.18825 61.8022 8.33228 61.949 8.36888C62.053 8.39479 62.1696 8.36063 62.2432 8.28281C62.3168 8.205 62.3443 8.08658 62.3126 7.9843C62.2703 7.84786 62.1415 7.76095 62.0411 7.65944C61.9398 7.55716 61.8618 7.43195 61.7502 7.3411C61.4354 7.08496 60.7551 7.2067 60.7554 7.69363Z" fill="white"/>
<path d="M68.7602 16.2763C68.7669 16.4561 68.7465 16.639 68.6807 16.8065C68.464 17.3584 67.7875 17.6905 67.7329 18.2809C67.9134 18.1605 68.0353 17.9704 68.2016 17.831C68.3991 17.6654 68.649 17.5792 68.881 17.4669C69.1131 17.3546 69.3443 17.1984 69.4401 16.959C69.5158 16.7701 69.4948 16.5535 69.4251 16.3622C69.3556 16.1709 69.2408 15.9999 69.1272 15.8311C68.9373 15.5489 68.7474 15.2667 68.5575 14.9845C68.5162 14.9231 68.4536 14.8533 68.3826 14.8745C68.1599 14.9414 68.4496 15.3194 68.5065 15.4123C68.6637 15.6688 68.749 15.9766 68.7602 16.2763Z" fill="#E2A359"/>
<path d="M52.6762 23.6032C52.9602 23.5212 53.2805 23.5184 53.5142 23.3374C53.6911 23.2004 53.7852 22.9847 53.8677 22.7767C54.0428 22.3353 54.1971 21.8857 54.3298 21.4298C54.2203 22.0717 54.0627 22.7055 53.8588 23.3239C53.8275 23.4189 53.792 23.5181 53.7163 23.5834C53.6549 23.6364 53.5744 23.6604 53.4966 23.683C53.2697 23.7489 53.0428 23.8148 52.8159 23.8807C52.7648 23.8955 52.7105 23.9124 52.6767 23.9535C52.6233 24.0185 52.6422 24.1145 52.6648 24.1955C52.7575 24.5287 52.8639 24.858 52.9837 25.1824C52.6584 25.131 52.3573 24.9404 52.1717 24.6682C51.8929 24.259 52.2522 23.7256 52.6762 23.6032Z" fill="#E2A359"/>
<path opacity="0.43" d="M48.2576 10.1585C48.1951 10.5908 48.3576 11.0244 48.355 11.4611C48.3513 12.0891 48.0104 12.6654 47.9116 13.2856C48.0095 13.3477 48.1445 13.3215 48.236 13.2504C48.3276 13.1793 48.3836 13.0723 48.4281 12.9652C48.8023 12.0643 48.5421 10.972 49.0113 10.1166C49.2843 9.61889 49.7662 9.27632 50.1423 8.85112C50.1846 8.80339 50.2256 8.72831 50.1812 8.68256C50.1621 8.66283 50.1329 8.65725 50.1055 8.65428C49.8449 8.6261 49.6774 8.75268 49.4903 8.90714C49.3327 9.03723 49.2469 9.07961 49.0508 9.16531C48.6448 9.34293 48.3221 9.71218 48.2576 10.1585Z" fill="white"/>
<path opacity="0.43" d="M49.3623 15.7235C48.9945 15.8216 48.6033 15.8448 48.2586 16.0063C47.8114 16.216 47.4915 16.6436 47.3314 17.1108C47.1713 17.5781 47.1565 18.0835 47.1965 18.5758C47.3876 18.5969 47.5664 18.4589 47.6599 18.2909C47.7534 18.123 47.7818 17.9281 47.8221 17.7401C47.8903 17.4227 48.005 17.0999 48.2424 16.8785C48.4799 16.6571 48.8668 16.5701 49.1352 16.7528C49.2475 16.8292 49.3478 16.9515 49.4835 16.9467C49.6631 16.9402 49.7461 16.7275 49.8045 16.5575C49.919 16.2249 50.106 15.9173 50.3487 15.6627C50.5237 15.4791 50.7063 15.1356 50.32 15.256C49.992 15.3581 49.7161 15.6291 49.3623 15.7235Z" fill="white"/>
<path d="M53.8185 9.08123C54.0242 9.35709 54.3514 9.50804 54.6513 9.67677C54.842 9.78403 55.0396 9.91886 55.1065 10.1272C55.2059 10.4371 54.9758 10.7586 54.9831 11.084C54.9889 11.3406 55.1586 11.5861 55.3966 11.6823C55.6346 11.7784 55.9272 11.7196 56.1096 11.539C56.2837 11.3666 56.3476 11.1157 56.4558 10.8958C56.5995 10.6039 56.8317 10.3563 57.1138 10.1942C57.3321 10.0687 57.579 9.99313 57.7819 9.84402C58.1661 9.56172 58.3269 9.06743 58.405 8.59717C58.4203 8.50485 58.4272 8.39442 58.3557 8.33399C58.3077 8.29334 58.2388 8.28987 58.176 8.29481C57.6929 8.33302 57.2784 8.74545 56.7955 8.7044C56.4818 8.67773 56.1979 8.43617 56.1214 8.13073C56.0494 7.84341 56.1383 7.50251 55.9529 7.27157C55.8737 7.17304 55.7551 7.11307 55.6336 7.07841C55.1104 6.92917 54.4986 7.27171 54.3524 7.79578C54.3107 7.94489 54.3019 8.16008 54.1615 8.25708C54.0407 8.3405 53.9045 8.23899 53.8087 8.29177C53.5499 8.43436 53.6703 8.88262 53.8185 9.08123Z" fill="#8F5236"/>
<path d="M66.3473 10.6108C66.3174 10.7145 66.3591 10.827 66.4231 10.9139C66.4872 11.0008 66.5722 11.0696 66.6455 11.1488C66.7773 11.291 66.871 11.4682 66.9144 11.6571C66.9262 11.7087 66.9415 11.7698 66.9912 11.7878C67.0287 11.8014 67.0699 11.7832 67.104 11.7624C67.37 11.6003 67.4964 11.2414 67.3908 10.9484C67.3562 10.8523 67.3004 10.7652 67.2389 10.6837C67.1639 10.5844 67.0767 10.4897 66.9647 10.4353C66.8048 10.3575 66.4067 10.4043 66.3473 10.6108Z" fill="#E2A359"/>
<path d="M67.6549 9.51511C67.5065 9.53974 67.3397 9.63016 67.3351 9.78053C67.3319 9.88231 67.4102 9.97253 67.5028 10.0147C67.5955 10.057 67.7004 10.061 67.8022 10.0631C67.9393 10.066 68.1125 10.0421 68.1518 9.91062C68.1719 9.84331 68.1455 9.77 68.1056 9.71218C67.9947 9.55131 67.7713 9.47861 67.587 9.54338L67.6549 9.51511Z" fill="#E2A359"/>
<path d="M49.5301 20.6669C49.4814 20.8 49.4639 20.9506 49.5162 21.0822C49.5686 21.2138 49.7033 21.3181 49.8442 21.304C49.9483 21.2936 50.0368 21.2244 50.1098 21.1495C50.247 21.0088 50.3555 20.8269 50.3577 20.6304C50.3648 19.9809 49.6825 20.2505 49.5301 20.6669Z" fill="#E2A359"/>
<path d="M49.71 22.3855C49.5097 22.3864 49.3119 22.4823 49.1872 22.639C49.1668 22.6646 49.1478 22.6929 49.1426 22.7252C49.1365 22.7629 49.1501 22.8012 49.1693 22.8342C49.2569 22.9845 49.4451 23.0397 49.6171 23.0654C49.7753 23.089 49.9585 23.0906 50.0695 22.9755C50.1841 22.8565 50.1638 22.6453 50.0464 22.5291C49.9317 22.4156 49.7397 22.3902 49.5995 22.47L49.71 22.3855Z" fill="#E2A359"/>
<path d="M53.1818 12.5158C53.6435 12.4469 54.1008 12.1866 54.2913 11.7603C54.2676 12.1067 54.2273 12.4892 53.971 12.7234C53.876 12.8102 53.7588 12.8682 53.6414 12.921C53.1955 13.1215 52.6847 13.2618 52.2216 13.1052C51.8264 12.9715 51.4873 12.6296 51.0707 12.6517C51.0008 12.6554 50.9295 12.6695 50.8618 12.6516C50.7942 12.6336 50.7315 12.5684 50.7477 12.5002C50.7588 12.4531 50.8025 12.4215 50.8447 12.3978C51.5 12.029 52.4568 12.624 53.1818 12.5158Z" fill="#E2A359"/>
<path d="M68.5851 12.5088C68.3957 12.6947 68.2762 12.9422 68.0875 13.1288C67.6805 13.5313 67.0464 13.5729 66.4744 13.5533C65.9023 13.5336 65.2917 13.4856 64.7954 13.7709C65.5132 13.6322 66.2645 13.6707 66.9644 13.8819C67.1651 13.9424 67.3765 14.0177 67.5792 13.9639C68.0076 13.8503 68.1969 13.2187 68.6401 13.2209C68.8098 13.2217 68.9606 13.3227 69.0997 13.4198C69.3532 13.5967 69.6067 13.7736 69.8602 13.9505C69.6169 13.475 69.4755 11.6343 68.5851 12.5088Z" fill="#E2A359"/>
<path d="M151.052 19.228C151.964 19.228 152.72 19.336 153.32 19.552C153.92 19.744 154.412 19.996 154.796 20.308C155.108 20.548 155.36 20.812 155.552 21.1C155.744 21.388 155.888 21.676 155.984 21.964C156.08 22.252 156.128 22.528 156.128 22.792C156.128 23.392 155.912 23.86 155.48 24.196C155.072 24.532 154.616 24.7 154.112 24.7C153.632 24.7 153.2 24.544 152.816 24.232C152.432 23.92 152.24 23.476 152.24 22.9C152.24 22.372 152.42 21.928 152.78 21.568C153.14 21.184 153.596 20.968 154.148 20.92C154.052 20.608 153.752 20.344 153.248 20.128C152.768 19.888 152.156 19.768 151.412 19.768C150.188 19.768 149.18 20.14 148.388 20.884C147.62 21.604 147.236 22.66 147.236 24.052C147.236 24.724 147.356 25.408 147.596 26.104C147.86 26.8 148.352 27.484 149.072 28.156C149.48 28.084 149.9 28.036 150.332 28.012C150.764 27.964 151.088 27.94 151.304 27.94C151.736 27.94 152.084 28.012 152.348 28.156C152.612 28.3 152.744 28.504 152.744 28.768C152.744 28.984 152.648 29.152 152.456 29.272C152.288 29.392 152.048 29.452 151.736 29.452C151.28 29.452 150.8 29.356 150.296 29.164C149.792 28.948 149.396 28.78 149.108 28.66C147.716 29.068 146.588 29.74 145.724 30.676C144.86 31.588 144.428 32.884 144.428 34.564C144.428 36.22 144.86 37.624 145.724 38.776C146.588 39.928 147.74 40.816 149.18 41.44C150.644 42.04 152.276 42.34 154.076 42.34C155.348 42.34 156.548 42.196 157.676 41.908C158.828 41.596 159.836 41.152 160.7 40.576C161.588 40 162.284 39.316 162.788 38.524C163.292 37.708 163.544 36.784 163.544 35.752C163.544 35.296 163.448 34.72 163.256 34.024C163.064 33.304 162.668 32.608 162.068 31.936C161.468 31.24 160.544 30.7 159.296 30.316L159.728 29.956C161.48 30.484 162.728 31.336 163.472 32.512C164.216 33.664 164.588 34.96 164.588 36.4C164.588 37.84 164.156 39.22 163.292 40.54C162.428 41.86 161.18 42.94 159.548 43.78C157.916 44.596 155.936 45.004 153.608 45.004C152.048 45.004 150.56 44.8 149.144 44.392C147.752 43.984 146.516 43.396 145.436 42.628C144.356 41.836 143.504 40.888 142.88 39.784C142.256 38.68 141.944 37.432 141.944 36.04C141.944 34.744 142.196 33.64 142.7 32.728C143.204 31.792 143.828 31.024 144.572 30.424C145.316 29.824 146.06 29.368 146.804 29.056C147.548 28.72 148.148 28.492 148.604 28.372C147.812 28.012 147.14 27.592 146.588 27.112C146.06 26.608 145.652 26.068 145.364 25.492C145.1 24.892 144.968 24.304 144.968 23.728C144.968 23.152 145.1 22.6 145.364 22.072C145.628 21.52 146.012 21.028 146.516 20.596C147.02 20.164 147.644 19.828 148.388 19.588C149.156 19.348 150.044 19.228 151.052 19.228ZM164.156 18.508C165.644 18.508 166.892 18.94 167.9 19.804C168.908 20.644 169.412 21.832 169.412 23.368C169.412 24.184 169.256 24.916 168.944 25.564C168.656 26.188 168.248 26.74 167.72 27.22C167.216 27.7 166.64 28.096 165.992 28.408C165.44 28.672 164.708 28.96 163.796 29.272C162.908 29.584 161.948 29.896 160.916 30.208C159.908 30.52 158.936 30.832 158 31.144C157.088 31.432 156.344 31.684 155.768 31.9C154.88 32.236 154.124 32.656 153.5 33.16C152.9 33.64 152.6 34.264 152.6 35.032C152.6 35.656 152.78 36.184 153.14 36.616C153.5 37.048 153.932 37.372 154.436 37.588C154.964 37.804 155.456 37.912 155.912 37.912C156.128 37.912 156.392 37.888 156.704 37.84C157.04 37.768 157.34 37.672 157.604 37.552C157.868 37.432 158.024 37.288 158.072 37.12C157.688 37.048 157.304 36.88 156.92 36.616C156.56 36.328 156.38 35.884 156.38 35.284C156.38 34.708 156.572 34.252 156.956 33.916C157.34 33.58 157.808 33.412 158.36 33.412C158.936 33.412 159.392 33.592 159.728 33.952C160.088 34.312 160.268 34.78 160.268 35.356C160.268 36.028 160.04 36.604 159.584 37.084C159.152 37.54 158.6 37.888 157.928 38.128C157.28 38.344 156.632 38.452 155.984 38.452C155.312 38.452 154.628 38.308 153.932 38.02C153.236 37.732 152.66 37.288 152.204 36.688C151.748 36.064 151.52 35.248 151.52 34.24C151.52 33.4 151.7 32.656 152.06 32.008C152.444 31.36 153.008 30.784 153.752 30.28C154.496 29.776 155.408 29.344 156.488 28.984C157.208 28.744 158.084 28.48 159.116 28.192C160.148 27.904 161.204 27.592 162.284 27.256C163.388 26.92 164.384 26.548 165.272 26.14C166.472 25.588 167.288 25.024 167.72 24.448C168.152 23.872 168.368 23.284 168.368 22.684C168.368 21.988 168.176 21.376 167.792 20.848C167.408 20.296 166.892 19.864 166.244 19.552C165.62 19.216 164.936 19.048 164.192 19.048C163.904 19.048 163.664 19.072 163.472 19.12C163.28 19.168 163.16 19.252 163.112 19.372C163.448 19.54 163.7 19.78 163.868 20.092C164.036 20.404 164.12 20.716 164.12 21.028C164.12 21.532 163.916 21.952 163.508 22.288C163.124 22.624 162.656 22.792 162.104 22.792C161.648 22.792 161.216 22.648 160.808 22.36C160.4 22.048 160.196 21.592 160.196 20.992C160.196 20.368 160.4 19.876 160.808 19.516C161.24 19.156 161.756 18.904 162.356 18.76C162.98 18.592 163.58 18.508 164.156 18.508Z" fill="#BC7553"/>
</svg>
